<?xml version="1.0" encoding="utf-8"?>
<!-- Generator: Adobe Illustrator 23.0.3, SVG Export Plug-In . SVG Version: 6.00 Build 0)  -->
<svg version="1.1" id="Layer_1" xmlns="http://www.w3.org/2000/svg" xmlns:xlink="http://www.w3.org/1999/xlink" x="0px" y="0px"
	 viewBox="0 0 300 300" style="enable-background:new 0 0 300 300;" xml:space="preserve">
<style type="text/css">
	.st0{display:none;fill:#FFFFFF;}
	.st1{fill:#FFFFFF;}
</style>
<circle class="st0" cx="150" cy="153.5" r="116.5"/>
<g>
</g>
<g>
	<g>
		<g>
			<path class="st1" d="M80.1,127.3c2.3,1.6,9.1,6.3,20.4,14.2c11.4,7.9,20.1,13.9,26.1,18.2c0.7,0.5,2.1,1.5,4.2,3
				c2.2,1.6,4,2.8,5.4,3.8c1.4,1,3.2,2,5.2,3.2c2,1.2,3.9,2.1,5.7,2.7c1.8,0.6,3.5,0.9,5,0.9h0.1h0.1c1.5,0,3.2-0.3,5-0.9
				c1.8-0.6,3.7-1.5,5.7-2.7c2-1.2,3.8-2.3,5.2-3.2c1.4-1,3.2-2.2,5.4-3.8c2.2-1.6,3.6-2.6,4.2-3c6.1-4.3,21.7-15.1,46.7-32.4
				c4.9-3.4,8.9-7.5,12.2-12.3c3.3-4.8,4.9-9.8,4.9-15.1c0-4.4-1.6-8.1-4.7-11.3c-3.2-3.1-6.9-4.7-11.2-4.7H78.9
				c-5.1,0-9.1,1.7-11.8,5.2c-2.8,3.5-4.1,7.8-4.1,13c0,4.2,1.8,8.7,5.5,13.6C72.1,120.6,76,124.5,80.1,127.3z"/>
			<path class="st1" d="M231.7,137.9c-21.8,14.8-38.3,26.2-49.6,34.4c-3.8,2.8-6.9,5-9.2,6.5c-2.4,1.6-5.5,3.2-9.4,4.8
				c-3.9,1.6-7.6,2.4-11,2.4h-0.1h-0.1c-3.4,0-7-0.8-11-2.4c-3.9-1.6-7.1-3.2-9.4-4.8c-2.4-1.6-5.4-3.7-9.2-6.5
				c-9-6.6-25.5-18-49.5-34.4c-3.8-2.5-7.1-5.4-10.1-8.7v79.1c0,4.4,1.6,8.1,4.7,11.3c3.1,3.1,6.9,4.7,11.3,4.7h146.7
				c4.4,0,8.1-1.6,11.3-4.7c3.1-3.1,4.7-6.9,4.7-11.3v-79.1C238.8,132.4,235.5,135.3,231.7,137.9z"/>
		</g>
	</g>
</g>
</svg>
