<?xml version="1.0" encoding="utf-8"?>
<!-- Generator: Adobe Illustrator 23.0.3, SVG Export Plug-In . SVG Version: 6.00 Build 0)  -->
<svg version="1.1" id="Capa_1" xmlns="http://www.w3.org/2000/svg" xmlns:xlink="http://www.w3.org/1999/xlink" x="0px" y="0px"
	 viewBox="0 0 523 523" style="enable-background:new 0 0 523 523;" xml:space="preserve">
<style type="text/css">
	.st0{display:none;fill:#FFFFFF;}
	.st1{fill:#FFFFFF;}
</style>
<circle class="st0" cx="256.8" cy="272.3" r="246.3"/>
<path class="st1" d="M212.3,451.5c-0.1-6.9-0.2-17.5-0.3-30.5c0-3.7-3.4-6.5-7-5.9c-63.1,10.4-78.3-32.9-79.2-35.7
	c0-0.1-0.1-0.2-0.1-0.3c-10.7-27.3-25.8-36.1-28-37.3c-0.2-0.1-0.4-0.2-0.6-0.4c-21.1-14.6-1.2-15.3,1.7-15.3c0.2,0,0.4,0,0.6,0
	c25.5,2,38.9,26.5,38.9,26.5c21.3,36.7,55,29.2,71.3,22.7c1.9-0.8,3.4-2.5,3.7-4.6c1.7-9.6,5-17.4,8.9-23.2c2.5-3.7,0.4-8.7-4-9.4
	c-53.3-8.2-105.7-33.3-105.7-125.5c0-26.7,9.1-48.8,24.1-66.4c1.4-1.6,1.8-3.8,1.1-5.9c-3.2-9.4-8.1-31.9,2.4-61.3
	c0.8-2.3,2.9-3.9,5.4-4c8.1-0.4,28.7,1.8,64.1,25.3c1.4,1,3.2,1.3,4.9,0.8c19.6-5.2,40.6-7.8,61.5-7.9c20.8,0.1,41.7,2.7,61.4,8
	c1.7,0.5,3.5,0.2,5-0.8c35.3-23.6,55.9-25.8,64-25.3c2.4,0.1,4.5,1.7,5.3,4c10.6,29.4,5.6,51.9,2.5,61.4c-0.7,2-0.3,4.2,1.1,5.8
	c15,17.6,24,39.6,24,66.4c0,92.4-52.4,117.3-105.9,125.4c-4.4,0.7-6.6,5.7-4.1,9.4c6,8.9,10.4,22,10.4,39.7
	c0,28.5-0.2,52.3-0.3,64.5c0,3.3-2.7,6-6.1,6H218.3C215,457.5,212.3,454.9,212.3,451.5z"/>
</svg>
