<svg id="Capa_1" enable-background="new 0 0 512 512" height="512" viewBox="0 0 512 512" width="512" xmlns="http://www.w3.org/2000/svg"><path d="m448.8 512c-3.979 0-7.794-1.581-10.606-4.394l-172.38-172.379c-3.187-3.187-4.771-7.637-4.317-12.121.455-4.484 2.902-8.525 6.664-11.007 17.575-11.594 32.357-26.376 43.938-43.937 2.481-3.763 6.522-6.21 11.007-6.666 4.481-.452 8.935 1.13 12.122 4.317l172.379 172.379c5.858 5.858 5.858 15.355 0 21.213l-48.2 48.2c-2.813 2.815-6.629 4.395-10.607 4.395z" fill="#1978ff"/><path d="m507.606 438.193-172.378-172.378c-3.188-3.187-7.641-4.769-12.122-4.317-4.484.456-8.525 2.903-11.007 6.666-5.791 8.782-12.383 16.869-19.725 24.21l191.133 191.133 24.1-24.1c5.858-5.859 5.858-15.356-.001-21.214z" fill="#323cff"/><circle cx="183.7" cy="183.7" fill="#00aafa" r="183.7"/><path d="m367.4 183.7c0-101.292-82.407-183.7-183.7-183.7-50.646 0-96.571 20.602-129.835 53.865l259.67 259.67c33.263-33.263 53.865-79.188 53.865-129.835z" fill="#1978ff"/><circle cx="183.7" cy="183.7" fill="#ebf5ff" r="119.434"/><path d="m303.134 183.7c0-65.856-53.578-119.434-119.434-119.434-32.928 0-62.786 13.395-84.413 35.021l168.825 168.825c21.627-21.626 35.022-51.484 35.022-84.412z" fill="#d4e6f3"/><circle clip-rule="evenodd" cx="183.7" cy="143.533" fill="#323cff" fill-rule="evenodd" r="15"/><path d="m183.7 238.867c-8.284 0-15-6.716-15-15v-32.133c0-8.284 6.716-15 15-15s15 6.716 15 15v32.133c0 8.284-6.716 15-15 15z" fill="#1978ff"/><path d="m183.7 176.734c-2.057 0-4.017.416-5.802 1.165l20.802 20.801v-6.967c0-8.284-6.716-14.999-15-14.999z" fill="#323cff"/></svg>