<?xml version="1.0" encoding="utf-8"?>
<!-- Generator: Adobe Illustrator 23.0.3, SVG Export Plug-In . SVG Version: 6.00 Build 0)  -->
<svg version="1.1" id="Calque_1" xmlns="http://www.w3.org/2000/svg" xmlns:xlink="http://www.w3.org/1999/xlink" x="0px" y="0px"
	 viewBox="0 0 983 371" style="enable-background:new 0 0 983 371;" xml:space="preserve">
<style type="text/css">
	.st0{fill:url(#SVGID_1_);}
	.st1{fill:url(#SVGID_2_);}
	.st2{fill:url(#SVGID_3_);}
	.st3{fill:url(#SVGID_4_);}
	.st4{fill:url(#SVGID_5_);}
	.st5{fill:url(#SVGID_6_);}
	.st6{fill:url(#SVGID_7_);}
	.st7{fill:url(#SVGID_8_);}
	.st8{fill:url(#SVGID_9_);}
	.st9{fill:url(#SVGID_10_);}
	.st10{fill:url(#SVGID_11_);}
	.st11{fill:url(#SVGID_12_);}
	.st12{fill:url(#SVGID_13_);}
	.st13{fill:url(#SVGID_14_);}
	.st14{fill:url(#SVGID_15_);}
</style>
<g>
	<g>
		
			<linearGradient id="SVGID_1_" gradientUnits="userSpaceOnUse" x1="0.4" y1="278.1" x2="981.5416" y2="278.1" gradientTransform="matrix(1 0 0 -1 0 372)">
			<stop  offset="0" style="stop-color:#6DCFF6"/>
			<stop  offset="1" style="stop-color:#00A6F3"/>
		</linearGradient>
		<path class="st0" d="M142.7,28.8L86.3,159H56.5L0.4,28.8H33l39.6,93l40.2-93C112.8,28.8,142.7,28.8,142.7,28.8z"/>
		
			<linearGradient id="SVGID_2_" gradientUnits="userSpaceOnUse" x1="0.375" y1="278.1" x2="981.5166" y2="278.1" gradientTransform="matrix(1 0 0 -1 0 372)">
			<stop  offset="0" style="stop-color:#6DCFF6"/>
			<stop  offset="1" style="stop-color:#00A6F3"/>
		</linearGradient>
		<path class="st1" d="M242,131.1h-60.5L170,159h-30.9l58-130.2h29.8L285.1,159h-31.6L242,131.1z M232.5,108.2l-20.6-49.8
			l-20.6,49.8H232.5z"/>
		
			<linearGradient id="SVGID_3_" gradientUnits="userSpaceOnUse" x1="0.375" y1="278.1" x2="981.5166" y2="278.1" gradientTransform="matrix(1 0 0 -1 0 372)">
			<stop  offset="0" style="stop-color:#6DCFF6"/>
			<stop  offset="1" style="stop-color:#00A6F3"/>
		</linearGradient>
		<path class="st2" d="M298.7,28.8h30.1v105.7h65.3V159h-95.4L298.7,28.8L298.7,28.8z"/>
		
			<linearGradient id="SVGID_4_" gradientUnits="userSpaceOnUse" x1="0.375" y1="278.1" x2="981.5166" y2="278.1" gradientTransform="matrix(1 0 0 -1 0 372)">
			<stop  offset="0" style="stop-color:#6DCFF6"/>
			<stop  offset="1" style="stop-color:#00A6F3"/>
		</linearGradient>
		<path class="st3" d="M511.9,134.8V159H411.1V28.8h98.4V53H441v28.3h60.5v23.4H441v30.1H511.9z"/>
		
			<linearGradient id="SVGID_5_" gradientUnits="userSpaceOnUse" x1="0.375" y1="278.1" x2="981.5166" y2="278.1" gradientTransform="matrix(1 0 0 -1 0 372)">
			<stop  offset="0" style="stop-color:#6DCFF6"/>
			<stop  offset="1" style="stop-color:#00A6F3"/>
		</linearGradient>
		<path class="st4" d="M655.3,28.8V159h-24.7l-65-79v79h-29.8V28.8h24.9l64.7,79.1V28.8H655.3z"/>
		
			<linearGradient id="SVGID_6_" gradientUnits="userSpaceOnUse" x1="0.375" y1="278.1" x2="981.5166" y2="278.1" gradientTransform="matrix(1 0 0 -1 0 372)">
			<stop  offset="0" style="stop-color:#6DCFF6"/>
			<stop  offset="1" style="stop-color:#00A6F3"/>
		</linearGradient>
		<path class="st5" d="M713.1,53.4h-41.7V28.8h113.5v24.6h-41.7V159h-30.1V53.4z"/>
		
			<linearGradient id="SVGID_7_" gradientUnits="userSpaceOnUse" x1="0.375" y1="278.1" x2="981.5166" y2="278.1" gradientTransform="matrix(1 0 0 -1 0 372)">
			<stop  offset="0" style="stop-color:#6DCFF6"/>
			<stop  offset="1" style="stop-color:#00A6F3"/>
		</linearGradient>
		<path class="st6" d="M801.1,28.8h30.1V159h-30.1V28.8z"/>
		
			<linearGradient id="SVGID_8_" gradientUnits="userSpaceOnUse" x1="0.375" y1="278.1" x2="981.5166" y2="278.1" gradientTransform="matrix(1 0 0 -1 0 372)">
			<stop  offset="0" style="stop-color:#6DCFF6"/>
			<stop  offset="1" style="stop-color:#00A6F3"/>
		</linearGradient>
		<path class="st7" d="M981.5,28.8V159h-24.7l-64.9-79v79h-29.8V28.8H887l64.7,79.1V28.8H981.5z"/>
	</g>
</g>
<g id="XMLID_1_">
	
		<image style="overflow:visible;opacity:0.95;" width="1054" height="258" xlink:href="B7EC9E0D.png"  transform="matrix(1 0 0 1 -33 134)">
	</image>
	<g>
		<g>
			<g>
				
					<linearGradient id="SVGID_9_" gradientUnits="userSpaceOnUse" x1="9.3" y1="109.8" x2="978.7868" y2="109.8" gradientTransform="matrix(1 0 0 -1 0 372)">
					<stop  offset="0" style="stop-color:#6DCFF6"/>
					<stop  offset="1" style="stop-color:#00A6F3"/>
				</linearGradient>
				<path class="st8" d="M157.8,338.7c-11.8,4-34,9.5-56.3,9.5c-30.8,0-53-7.8-68.5-22.5C17.8,311,9.3,289,9.3,264.2
					c0.3-56,41-88,96.3-88c21.8,0,38.5,4.3,46.8,8l-8,30.8c-9.3-4.3-20.5-7.3-39-7.3c-31.8,0-56,17.8-56,54.5
					c0,35,22,55.3,53.3,55.3c8.5,0,15.5-1,18.5-2.3v-35.5H95V250h62.8V338.7z"/>
				
					<linearGradient id="SVGID_10_" gradientUnits="userSpaceOnUse" x1="9.2583" y1="108.35" x2="978.7451" y2="108.35" gradientTransform="matrix(1 0 0 -1 0 372)">
					<stop  offset="0" style="stop-color:#6DCFF6"/>
					<stop  offset="1" style="stop-color:#00A6F3"/>
				</linearGradient>
				<path class="st9" d="M225.5,178v96.8c0,29.3,11.3,44,30.5,44c20,0,31-14,31-44V178h38v94.5c0,52-26.3,76.8-70.3,76.8
					c-42.5,0-67.3-23.8-67.3-77.3v-94H225.5z"/>
				
					<linearGradient id="SVGID_11_" gradientUnits="userSpaceOnUse" x1="9.2583" y1="109.75" x2="978.7451" y2="109.75" gradientTransform="matrix(1 0 0 -1 0 372)">
					<stop  offset="0" style="stop-color:#6DCFF6"/>
					<stop  offset="1" style="stop-color:#00A6F3"/>
				</linearGradient>
				<path class="st10" d="M396.3,178v168.5h-38V178H396.3z"/>
				
					<linearGradient id="SVGID_12_" gradientUnits="userSpaceOnUse" x1="9.2583" y1="109.45" x2="978.7451" y2="109.45" gradientTransform="matrix(1 0 0 -1 0 372)">
					<stop  offset="0" style="stop-color:#6DCFF6"/>
					<stop  offset="1" style="stop-color:#00A6F3"/>
				</linearGradient>
				<path class="st11" d="M429.3,180.2c10-1.8,30-3.5,49.3-3.5c23.3,0,37.5,2.3,50,9.5c11.8,6.3,20,17.8,20,33.3
					c0,14.8-8.8,28.5-27.8,35.8v0.5c19.3,5,33.5,19.8,33.5,41.3c0,15.5-7,27.5-17.5,36c-12.3,9.8-32.8,15.3-66.3,15.3
					c-18.8,0-32.8-1.3-41.3-2.5L429.3,180.2L429.3,180.2z M467,244.7h12.5c20.3,0,30.8-8.3,30.8-20.8c0-12.8-9.8-19.5-27-19.5
					c-8.5,0-13.3,0.5-16.3,1V244.7z M467,319.5c3.8,0.5,8.3,0.5,14.8,0.5c17.3,0,32.5-6.8,32.5-24.5c0-16.8-15.3-23.5-34.3-23.5h-13
					V319.5z"/>
				
					<linearGradient id="SVGID_13_" gradientUnits="userSpaceOnUse" x1="9.2583" y1="109.75" x2="978.7451" y2="109.75" gradientTransform="matrix(1 0 0 -1 0 372)">
					<stop  offset="0" style="stop-color:#6DCFF6"/>
					<stop  offset="1" style="stop-color:#00A6F3"/>
				</linearGradient>
				<path class="st12" d="M680.5,275.2h-62v40h69.3v31.3H580.5V178h103.8v31.3h-65.8v35h62V275.2z"/>
				
					<linearGradient id="SVGID_14_" gradientUnits="userSpaceOnUse" x1="9.2583" y1="110.3" x2="978.7451" y2="110.3" gradientTransform="matrix(1 0 0 -1 0 372)">
					<stop  offset="0" style="stop-color:#6DCFF6"/>
					<stop  offset="1" style="stop-color:#00A6F3"/>
				</linearGradient>
				<path class="st13" d="M713.7,180.2c12.3-2,30.3-3.5,50.8-3.5c25,0,42.5,3.8,54.5,13.3c10.3,8,15.8,20,15.8,35.5
					c0,21.3-15.3,36-29.8,41.3v0.8c11.8,4.8,18.3,15.8,22.5,31.3c5.3,19.3,10.3,41.3,13.5,47.8h-39c-2.5-5-6.8-18.5-11.5-39.3
					c-4.8-21.3-12-26.8-27.8-27h-11.3v66.3h-37.8L713.7,180.2L713.7,180.2z M751.5,252.7h15c19,0,30.3-9.5,30.3-24.3
					c0-15.3-10.5-23.3-28-23.3c-9.3,0-14.5,0.5-17.3,1.3V252.7z"/>
				
					<linearGradient id="SVGID_15_" gradientUnits="userSpaceOnUse" x1="9.2583" y1="109.75" x2="978.7451" y2="109.75" gradientTransform="matrix(1 0 0 -1 0 372)">
					<stop  offset="0" style="stop-color:#6DCFF6"/>
					<stop  offset="1" style="stop-color:#00A6F3"/>
				</linearGradient>
				<path class="st14" d="M894.7,210h-45.5v-32h129.5v32h-46v136.5h-38V210z"/>
			</g>
		</g>
	</g>
</g>
</svg>
