<svg id="Calque_1" data-name="Calque 1" xmlns="http://www.w3.org/2000/svg" viewBox="0 0 1086 493.5"><defs><style>.cls-1{fill:none;}.cls-2{isolation:isolate;}.cls-3{fill:#fff;}</style></defs><title>name_dark</title><rect x="24" width="1032" height="405"/><rect class="cls-1" y="29" width="1072" height="229"/><g class="cls-2"><path class="cls-3" d="M18.91,32.63c0,2-.65,3.23-2,3.59a16.91,16.91,0,0,1-4.58.55A33.93,33.93,0,0,0,7,37.21a5.75,5.75,0,0,0-4.25,3.48A9.66,9.66,0,0,0,5.29,46.8c1.67,2,3.52,4.07,5.56,6.1a100.38,100.38,0,0,0,2.61,23.22q2.63,11,6,21.69t6.76,21.58a134.65,134.65,0,0,1,4.9,23.11v4.14a48.47,48.47,0,0,0,4.14-12.32,45.15,45.15,0,0,1,4.15-12.1,65.81,65.81,0,0,0,2.39-9.7q.87-5.11,1.64-10.13C44,99,44.49,95.92,45.07,93a29.58,29.58,0,0,1,2.4-7.41Q49,78,50.52,71.65t3.06-12.1q1.52-5.77,3.05-11.23t3-11.55a28.77,28.77,0,0,0-5.34.44,22.84,22.84,0,0,1-4.25.43,6.9,6.9,0,0,1-3.6-1,9.52,9.52,0,0,1-3.16-4,26.42,26.42,0,0,1,.54-5.56c.37-1.67,1.56-2.51,3.6-2.51a31.62,31.62,0,0,0,9.27,1.64q4.68.11,9.59-.22t10.35-.87q5.44-.54,11.56-.55c0,1,0,2.44-.11,4.25a22.91,22.91,0,0,1-.87,5.34,11.78,11.78,0,0,1-2.51,4.58,6.09,6.09,0,0,1-4.8,2q-5.88-5.88-12.2,0-3.06,15.48-6.11,30.63t-6.1,30.41q-3.06,12.43-6.11,24.53t-6.1,24.3q-3.06,3.06-6.1,5.67a9.43,9.43,0,0,1-6.11,2.62q-6.1-1.53-8.83-5.78A35.88,35.88,0,0,1,18,143.48q-1.53-5.34-2.83-11a30.9,30.9,0,0,0-4.36-10.25,49.55,49.55,0,0,0-1.31-11.55q-1.3-5.44-2.73-10.35t-2.72-9.6a34.39,34.39,0,0,1-1.31-9.26,84.13,84.13,0,0,0-2.61-22Q-2.45,49.86-5.5,40.69c0-2-.84-3.19-2.51-3.48a32.65,32.65,0,0,0-5.56-.44A5,5,0,0,1-16,38.4a3.09,3.09,0,0,1-1.63-.21,11.64,11.64,0,0,1-1.64-.88,4.52,4.52,0,0,0-2.39-.54,6.29,6.29,0,0,1-1.75-2.4,2.48,2.48,0,0,1,.22-1.74c.29-.58.62-1.17,1-1.75a4.53,4.53,0,0,0,.55-2.4c0-2,.65-3.16,2-3.37a10.35,10.35,0,0,1,4.58.43q2.61.77,5.34,1.85A12.33,12.33,0,0,0-5.5,28.48H2.78A9.75,9.75,0,0,1,7,24a9,9,0,0,1,5.34-1.09A6.91,6.91,0,0,1,17,25.65Q18.92,28.05,18.91,32.63Z" transform="translate(63 24)"/><path class="cls-3" d="M195.06,66.42a106.89,106.89,0,0,1,2.18,19.4q.21,10-.33,19.84t-1.2,19q-.66,9.16-.65,16.57a11.17,11.17,0,0,0,4.57,5,21.32,21.32,0,0,0,5.34,1.85q2.73.54,5.35.87a7.65,7.65,0,0,1,4.57,2.29h10a8.66,8.66,0,0,1-.76,3.49,18.74,18.74,0,0,1-1.85,3.27,28.06,28.06,0,0,1-2.4,3.27,51.11,51.11,0,0,0-7.41.54,52.25,52.25,0,0,1-7.53.55,22.51,22.51,0,0,1-7.52-1.31,22.26,22.26,0,0,1-7.63-5,51.42,51.42,0,0,0-.54-7.41c-.37-2.47-1.78-4.94-4.25-7.41a59.36,59.36,0,0,1-15.92,11.66A73,73,0,0,1,152,158.74a107,107,0,0,1-18.09,2.18q-9.27.33-18.64.33-22.45-15-14.83-44.91a35.27,35.27,0,0,1,11.45-11.12A46.27,46.27,0,0,1,125.62,100a84.85,84.85,0,0,1,15.15-1.74l15.59-.44a102.05,102.05,0,0,0,15.15-1.53,38.77,38.77,0,0,0,13.52-5q0-3.7-.11-8.07a35.5,35.5,0,0,0-1.09-8.06,17.35,17.35,0,0,0-2.94-6.22,6.77,6.77,0,0,0-5.67-2.5,71.83,71.83,0,0,0-44.91,0,28.06,28.06,0,0,1,2.4,3.27A18.38,18.38,0,0,1,134.56,73a9.08,9.08,0,0,1,.76,3.7,5.27,5.27,0,0,0-3,.77c-.73.51-1.56,1-2.51,1.63a18.77,18.77,0,0,1-3.59,1.64,18.38,18.38,0,0,1-5.89.76,17.28,17.28,0,0,1-5-.66A10.56,10.56,0,0,1,112,79.39a3.08,3.08,0,0,1-1.53-2.73q-3.91,0-4.58-3.27a36,36,0,0,1-.65-7A38.17,38.17,0,0,1,119,55.08a60.3,60.3,0,0,1,16.9-5.34A76.53,76.53,0,0,1,153.64,49,89.93,89.93,0,0,1,170,51.59a29.46,29.46,0,0,1,14.38,3.71A26.36,26.36,0,0,1,195.06,66.42Zm-19.84,64.74c3.49,0,5.74-1,6.76-3a14.06,14.06,0,0,0,1.19-7.41,52.31,52.31,0,0,0-1.63-9.37A46.62,46.62,0,0,1,180,102.6a3.62,3.62,0,0,1-3.38,3.28,45.8,45.8,0,0,1-6.64.43,26.64,26.64,0,0,1-11,2.94q-6,.33-12.21.11l-12.21-.43a34.33,34.33,0,0,0-10.9,1.2,19,19,0,0,0-8.5,5.12q-3.6,3.7-4.69,11.12a38.06,38.06,0,0,0,9.81,24.85,60.58,60.58,0,0,0,17,1,47.3,47.3,0,0,0,14.17-3.6,56.82,56.82,0,0,0,12.31-7.3A120.89,120.89,0,0,0,175.22,131.16Z" transform="translate(63 24)"/><path class="cls-3" d="M289.88,15.84A5.47,5.47,0,0,1,293.26,14a4.6,4.6,0,0,1,2.84.65,5.57,5.57,0,0,1,2,2.4,7.45,7.45,0,0,1,.76,3.16V137.27c-1.16,0-1.78.25-1.85.76a5.49,5.49,0,0,0,.22,2.07,21.47,21.47,0,0,0,1,2.94,9.15,9.15,0,0,1,.65,3.38h40.77a7.47,7.47,0,0,1,3.16.77,5.19,5.19,0,0,1,2.4,2.07,5.11,5.11,0,0,1,.65,2.94,4.7,4.7,0,0,1-1.85,3.16,10.28,10.28,0,0,1-4,4.47A10.38,10.38,0,0,1,335,161a22.69,22.69,0,0,1-5-.55,19.36,19.36,0,0,0-4.15-.54,86.42,86.42,0,0,1-16.13,1.85q-7.64.11-14.71-.22t-14-1c-4.57-.43-9.12-.65-13.62-.65a49.45,49.45,0,0,0-8.61.65q-3.6.66-6.54,1a37.78,37.78,0,0,1-5.67.22,15.56,15.56,0,0,1-6.21-1.85q-3.27,0-4.47-.87a2.93,2.93,0,0,1-1.2-2.51,22,22,0,0,1,.54-4.25,28.57,28.57,0,0,0,.55-5.89q5.24-3.48,9.7-3.27a40.34,40.34,0,0,1,9,1.53q4.57,1.31,9.92,2.4a26.76,26.76,0,0,0,12.1-.66c0,1.17.21,1.82.65,2a2,2,0,0,0,1.53-.21c.57-.44,1.3-1,2.17-1.75,2.33-2.47,3.67-4.79,4-7a40.08,40.08,0,0,0,.54-6.54,98.42,98.42,0,0,1-1.3-20.93q.42-10.91,1.19-21.91t1.2-21.8a111.79,111.79,0,0,0-1.09-21V33.93A8.41,8.41,0,0,0,278.77,30a51,51,0,0,0-9.92.11q-5.36.54-10.9,1.31a31.5,31.5,0,0,1-9.81,0,9.48,9.48,0,0,1-6.54-4.25q-2.29-3.49-1.2-11.34Z" transform="translate(63 24)"/><path class="cls-3" d="M458,85.82A46.87,46.87,0,0,0,458.5,93a41.8,41.8,0,0,1,.55,6.54,13.41,13.41,0,0,1-1.2,5.67,9.53,9.53,0,0,1-4.69,4.36,63.38,63.38,0,0,0-42.07,0,36.78,36.78,0,0,0-9.7-2,53.45,53.45,0,0,0-8.39.22q-3.93.43-7.63,1.09a42.15,42.15,0,0,1-7.2.65c-2.32,2.33-3.38,4.4-3.16,6.21a12.23,12.23,0,0,0,2.07,5.34q1.74,2.63,3.82,5.45a10.5,10.5,0,0,1,2.07,6.33,15.71,15.71,0,0,0,4.25,5.45,30.81,30.81,0,0,0,5.12,3.27c1.75.87,3.45,1.67,5.12,2.39a13.87,13.87,0,0,1,4.26,2.84q14.16,0,24.63-6.43a56,56,0,0,0,17.44-16.9,9.7,9.7,0,0,1,9.37,9.38,12.43,12.43,0,0,1-1.63,6.32,26.68,26.68,0,0,1-4.25,5.45q-2.62,2.61-5.89,5.45t-6.76,6.32a96.33,96.33,0,0,1-12.75,3.16A82.92,82.92,0,0,1,406.4,161,58.13,58.13,0,0,1,390.92,159a28.39,28.39,0,0,1-12.75-7.3,91,91,0,0,0-7.63-9.92q-4.14-4.69-7.63-9.49A51.14,51.14,0,0,1,357.13,122a32,32,0,0,1-2.28-12.43,9.43,9.43,0,0,1,.76-3.6c.51-1.23,1.05-2.61,1.63-4.14s1.13-3.19,1.64-5a23.06,23.06,0,0,0,.76-6.21,66.94,66.94,0,0,1,5.12-13.74,65.55,65.55,0,0,1,8.18-12.53,52,52,0,0,1,10.9-9.92,41,41,0,0,1,13.08-5.89A79.1,79.1,0,0,1,417,51.05a66.35,66.35,0,0,1,17.54,7.3,57.27,57.27,0,0,1,14,11.77A56,56,0,0,1,458,85.82Zm-18.75,4.8a14,14,0,0,0-.76-4.15,22.14,22.14,0,0,0-2.07-4.58,15.5,15.5,0,0,0-3.05-3.7,5.35,5.35,0,0,0-3.49-1.53q-3.49-1.74-7.74-4a45.46,45.46,0,0,0-8.72-3.6,24.25,24.25,0,0,0-8.72-1,12.08,12.08,0,0,0-7.74,3.82A13.71,13.71,0,0,1,392,77.64q-3.15,2.08-6.21,4.36a27.92,27.92,0,0,0-5.34,5.24q-2.29,2.94-2.29,8.17,7,0,14.83-.11t15.69-.54q7.85-.44,15.7-1.42A124.86,124.86,0,0,0,439.21,90.62Z" transform="translate(63 24)"/><path class="cls-3" d="M513.76,59a10.63,10.63,0,0,1-.65,3.6c-.44,1.24-.8,2.44-1.09,3.6a10.07,10.07,0,0,0-.22,3.6,7.21,7.21,0,0,0,2,3.81,6,6,0,0,0,3.82-1.53c1.23-1,2.47-2.14,3.71-3.37s2.47-2.36,3.7-3.38a5.7,5.7,0,0,1,3.6-1.53q1.74-5.44,5.23-7.74a24,24,0,0,1,7.63-3.27,65.88,65.88,0,0,1,8.39-1.41,24.42,24.42,0,0,0,8-2.19,17.09,17.09,0,0,1,7.09,1.64,43.66,43.66,0,0,1,6.86,3.92,50.66,50.66,0,0,1,5.89,4.8q2.61,2.51,4.58,4.25a156,156,0,0,1,2,21.15q.21,10.24-.22,20.27t-1.09,20.28q-.66,10.25-.65,21.14h9.59a7.44,7.44,0,0,1,3.05-2.18,2.64,2.64,0,0,1,2,.33q.87.54,1.86,1.2a4.9,4.9,0,0,0,2.72.65c2.47,0,3.93,1,4.36,2.94a30.56,30.56,0,0,1,.66,6.65,18.36,18.36,0,0,1-8.07,4.91,34,34,0,0,1-8.94,1.2,59.72,59.72,0,0,1-8.94-.66,55.39,55.39,0,0,0-8.06-.65q-2-1.75-5.89-1.42c-2.61.22-5.31.51-8.06.87a24,24,0,0,1-7.2,0c-2-.36-3-1.78-3-4.25a37.13,37.13,0,0,1,.54-6.65c.37-2,1.71-2.94,4-2.94h19.62a65.1,65.1,0,0,1-3.6-21.8q.11-10.89.55-21.47a161.2,161.2,0,0,0-.44-20.49A44.63,44.63,0,0,0,562.6,63.8,19.93,19.93,0,0,0,554.53,62a27.69,27.69,0,0,0-8.94,1.31,42.41,42.41,0,0,0-9,4,35.25,35.25,0,0,0-8,6.32,29.68,29.68,0,0,0-9.27,9.7,49.64,49.64,0,0,0-5.45,13.3A62.11,62.11,0,0,0,512,111.87,64.24,64.24,0,0,0,513.76,127a8.1,8.1,0,0,0-2.07,3.71,20.14,20.14,0,0,0-.32,3.59,30,30,0,0,1-.22,3.6,7.17,7.17,0,0,1-2,3.71,14.16,14.16,0,0,0,5.77,3.49,45.42,45.42,0,0,0,6.87,1.63q3.48.54,6.65,1a11.34,11.34,0,0,1,5.12,1.85,5,5,0,0,1,2.07,4c.08,1.74-.69,4.21-2.29,7.41h-14.6a113.17,113.17,0,0,0-11.66.65,114.73,114.73,0,0,1-12.1.66,50.21,50.21,0,0,1-11.12-1.2,16.83,16.83,0,0,1-8.72-4.91,3.75,3.75,0,0,0,1.31-3.59c-.3-1.24-.59-2.44-.88-3.6a7.56,7.56,0,0,1,0-3.6c.29-1.23,1.67-2.51,4.15-3.81a19,19,0,0,1,4.57.65q2.63.66,5.35,1.2a19.35,19.35,0,0,0,5.34.33,6.41,6.41,0,0,0,4.36-2.18V63.8a3.82,3.82,0,0,0-4.47-.65q-2.73,1.1-5.89,2.5a19,19,0,0,1-6.76,1.64c-2.39.15-4.76-1-7.08-3.49a15,15,0,0,1,.76-4.25,23.67,23.67,0,0,1,2.07-4.8,16.76,16.76,0,0,1,3.05-3.92,5.39,5.39,0,0,1,3.71-1.64A8.73,8.73,0,0,0,490,51.92a18.31,18.31,0,0,0,5.67-.22q2.83-.54,5.56-1.31a12.7,12.7,0,0,1,5.12-.43,7.52,7.52,0,0,1,4.36,2.29C512,53.55,513,55.81,513.76,59Z" transform="translate(63 24)"/><path class="cls-3" d="M660.7,8.43a65,65,0,0,1-.77,10.24q-.76,4.8-1.63,9.38t-1.64,9.26a63.16,63.16,0,0,0-.76,10.14l4.8,4.8a34.52,34.52,0,0,0,14.38.87q7.2-1.09,13.52-2a42,42,0,0,1,11.66-.11q5.34.77,9,6.21a9,9,0,0,1-3,6.65,9.56,9.56,0,0,1-6.76,2.94,23.07,23.07,0,0,0-8.83-2,87.61,87.61,0,0,0-10.57.22q-5.46.44-10.68,1.09a73.84,73.84,0,0,1-8.72.65,78.45,78.45,0,0,0-2.07,14.72q-.33,7.31-.33,14.6t-.33,14.5a75.89,75.89,0,0,1-2.07,14.39,24,24,0,0,1,2.18,7.19q.43,3.5.87,6.33A9.23,9.23,0,0,0,660.7,143q1.31,1.64,5,1.64,1.74,3.7,3.49,4.14a7.11,7.11,0,0,0,3.49,0c1.16-.29,2.36-.54,3.59-.76a4.55,4.55,0,0,1,3.82,1.41,16.3,16.3,0,0,0,8.72-6.54q3.27-4.78,6.43-9.8a43.65,43.65,0,0,1,7.41-8.94q4.26-3.93,11.45-3.93a7.57,7.57,0,0,0,.65,3,20.92,20.92,0,0,0,1.42,3.17,15.13,15.13,0,0,0,2.72,3.59,37.69,37.69,0,0,0-9.48,9.38q-4,5.67-8.18,10.68a35.64,35.64,0,0,1-9,8q-4.91,2.94-12.1,1.2a58.79,58.79,0,0,1-20.49-3.71,30.47,30.47,0,0,1-8.07-4.47,20,20,0,0,1-5.45-6.43,14.37,14.37,0,0,0-1.42-6.54q-1.41-2.83-2.72-5.12a20.36,20.36,0,0,1-1.86-4.15,4,4,0,0,1,1.2-3.81,77.41,77.41,0,0,0,2.08-15.15q.32-8,.32-15.7T644,79.39a48.44,48.44,0,0,1,2.07-12.54,41.29,41.29,0,0,1-7.3-.65q-3.6-.66-7.2-1.09a41.21,41.21,0,0,0-7.3-.22,20.23,20.23,0,0,0-7.41,2q-3.71,0-4.25-2.94a36.1,36.1,0,0,1-.55-6.65,19,19,0,0,1,7.41-4.9,25,25,0,0,1,7.74-1.2,76.42,76.42,0,0,1,8.72.54,86.65,86.65,0,0,0,10.14.55A22.4,22.4,0,0,0,647,40.58q-1.1-6.21-2-12.64a49.12,49.12,0,0,1-.11-12.64c.51-4.15,2.58-8,6.21-11.67a4.84,4.84,0,0,1,2.84.77,15.13,15.13,0,0,1,2,1.63,14.54,14.54,0,0,0,2,1.64A4.84,4.84,0,0,0,660.7,8.43Z" transform="translate(63 24)"/><path class="cls-3" d="M781.25,54.21a22.19,22.19,0,0,1,3.92,10.46,68.36,68.36,0,0,1,0,10.9q-.43,5.67-.87,11.88a40.2,40.2,0,0,0,1.31,13,99.36,99.36,0,0,1-2.18,20.71,98.91,98.91,0,0,0-2.18,20.71,19.06,19.06,0,0,0,7.63,2,54.94,54.94,0,0,0,8.39-.22c2.84-.29,5.63-.66,8.39-1.09a50,50,0,0,1,7.85-.66h9.16q6.75,7.2,0,14.17v4.37H739.61a12.81,12.81,0,0,1-7.08-2.19,12.61,12.61,0,0,0-6.87-2.18q-1.75-1.74-1.2-3.48a13.13,13.13,0,0,1,1.85-3.6c.87-1.23,1.75-2.43,2.62-3.6a5.8,5.8,0,0,0,1.31-3.49c0-1.16.25-1.81.76-2a3.71,3.71,0,0,1,2.07.22c.87.29,1.89.65,3,1.09a9.79,9.79,0,0,0,3.49.65,18.84,18.84,0,0,0,7.52,2,49,49,0,0,0,8-.22c2.61-.29,5-.66,7.08-1.09a25.79,25.79,0,0,1,4.91-.66A94.13,94.13,0,0,1,765.22,124q-.11-9.37.22-19t1-19q.66-9.37.66-18.1-7-3.27-16.68-1.09a177.34,177.34,0,0,0-20.16,5.89,9.05,9.05,0,0,1-4.58-4.25,8.89,8.89,0,0,1-.66-5.12,13.33,13.33,0,0,1,2-5,23.34,23.34,0,0,1,3.27-4.14Zm9.15-36.84a5.53,5.53,0,0,1,1.86,3.48,6.27,6.27,0,0,1-.77,3.38,16,16,0,0,1-2.5,3.38q-1.63,1.76-3.38,3.49a11.2,11.2,0,0,1-4.14,2.62,14.6,14.6,0,0,1-5,.87,15.52,15.52,0,0,1-5.12-.87,10.93,10.93,0,0,1-4.25-2.62,15.18,15.18,0,0,0-3.93-2.83,26,26,0,0,1-3.92-2.4,6.78,6.78,0,0,1-2.4-3.16q-.65-1.86,1.09-5.34a16.49,16.49,0,0,1,6.43-8.5,19.88,19.88,0,0,1,9.81-3.71A15.94,15.94,0,0,1,784,7.56Q788.67,10.4,790.4,17.37Z" transform="translate(63 24)"/><path class="cls-3" d="M877.6,59a10.88,10.88,0,0,1-.65,3.6c-.44,1.24-.8,2.44-1.09,3.6a9.85,9.85,0,0,0-.22,3.6,7.13,7.13,0,0,0,2,3.81,6,6,0,0,0,3.82-1.53c1.23-1,2.47-2.14,3.7-3.37s2.47-2.36,3.71-3.38a5.7,5.7,0,0,1,3.6-1.53q1.74-5.44,5.23-7.74a24,24,0,0,1,7.63-3.27,65.88,65.88,0,0,1,8.39-1.41,24.49,24.49,0,0,0,8-2.19,17,17,0,0,1,7.08,1.64,43.31,43.31,0,0,1,6.87,3.92,50.66,50.66,0,0,1,5.89,4.8c1.74,1.67,3.27,3.09,4.57,4.25A154.42,154.42,0,0,1,948,85q.21,10.24-.22,20.27t-1.09,20.28q-.66,10.25-.66,21.14h9.6a7.38,7.38,0,0,1,3.05-2.18,2.65,2.65,0,0,1,2,.33c.58.36,1.2.76,1.85,1.2a4.94,4.94,0,0,0,2.73.65q3.71,0,4.36,2.94a31.23,31.23,0,0,1,.65,6.65,18.28,18.28,0,0,1-8.06,4.91,34,34,0,0,1-8.94,1.2,59.72,59.72,0,0,1-8.94-.66,55.52,55.52,0,0,0-8.07-.65c-1.3-1.17-3.27-1.64-5.88-1.42s-5.31.51-8.07.87a23.93,23.93,0,0,1-7.19,0c-2-.36-3.05-1.78-3.05-4.25a37.13,37.13,0,0,1,.54-6.65c.36-2,1.71-2.94,4-2.94h19.62a65.09,65.09,0,0,1-3.59-21.8q.11-10.89.54-21.47a161.23,161.23,0,0,0-.43-20.49,44.65,44.65,0,0,0-6.33-19.08A19.89,19.89,0,0,0,918.37,62a27.69,27.69,0,0,0-8.94,1.31,42.7,42.7,0,0,0-9,4,35.19,35.19,0,0,0-8,6.32,29.58,29.58,0,0,0-9.27,9.7,49,49,0,0,0-5.45,13.3,61.63,61.63,0,0,0-1.85,15.26A64.24,64.24,0,0,0,877.6,127a8.1,8.1,0,0,0-2.07,3.71,19.25,19.25,0,0,0-.33,3.59,30,30,0,0,1-.21,3.6,7.12,7.12,0,0,1-2,3.71,14.26,14.26,0,0,0,5.78,3.49,45.14,45.14,0,0,0,6.87,1.63q3.48.54,6.65,1a11.34,11.34,0,0,1,5.12,1.85,5,5,0,0,1,2.07,4q.11,2.61-2.29,7.41h-14.6a113.36,113.36,0,0,0-11.67.65,114.45,114.45,0,0,1-12.1.66,50.12,50.12,0,0,1-11.11-1.2,16.83,16.83,0,0,1-8.72-4.91,3.74,3.74,0,0,0,1.3-3.59q-.44-1.86-.87-3.6a7.56,7.56,0,0,1,0-3.6c.29-1.23,1.67-2.51,4.14-3.81a19,19,0,0,1,4.58.65c1.75.44,3.52.84,5.34,1.2a19.4,19.4,0,0,0,5.34.33,6.37,6.37,0,0,0,4.36-2.18V63.8a3.81,3.81,0,0,0-4.46-.65c-1.82.73-3.79,1.56-5.89,2.5a19,19,0,0,1-6.76,1.64c-2.4.15-4.76-1-7.08-3.49a15,15,0,0,1,.76-4.25,23.67,23.67,0,0,1,2.07-4.8,16.76,16.76,0,0,1,3-3.92,5.37,5.37,0,0,1,3.71-1.64,8.73,8.73,0,0,0,5.23,2.73,18.31,18.31,0,0,0,5.67-.22c1.88-.36,3.74-.8,5.56-1.31a12.69,12.69,0,0,1,5.12-.43,7.55,7.55,0,0,1,4.36,2.29C875.86,53.55,876.87,55.81,877.6,59Z" transform="translate(63 24)"/></g><rect class="cls-1" y="197.5" width="1086" height="296"/><g class="cls-2"><path class="cls-3" d="M145.7,209c0-1,0-2.28.11-3.81a12.65,12.65,0,0,1,1-4.36,9.39,9.39,0,0,1,2.51-3.49,7.34,7.34,0,0,1,4.91-1.42,10.14,10.14,0,0,1,1.08,5.89,37,37,0,0,1-1.19,5,35.88,35.88,0,0,0-1.2,4.91,8.26,8.26,0,0,0,1.31,5.56,10.05,10.05,0,0,0-3.17,7.63c.08,2.91.22,5.67.44,8.28a22,22,0,0,1-.33,6.76q-.65,2.83-5.45,2.83A5.48,5.48,0,0,1,144,239.6a8.06,8.06,0,0,1,.22-3.27c.29-1.09.61-2.14,1-3.16a9.67,9.67,0,0,0,.54-3.27,19.26,19.26,0,0,0-1.41-6.76,37.29,37.29,0,0,0-3.82-7.3A39.59,39.59,0,0,0,135,209.3a31.39,31.39,0,0,0-6.1-4.68,19.88,19.88,0,0,0-10.14-3.6,28.34,28.34,0,0,0-10.46,1.31,41,41,0,0,0-9.71,4.57,56.33,56.33,0,0,0-7.84,6,63,63,0,0,0-8.72,11,79.66,79.66,0,0,0-6.76,13.4,85,85,0,0,0-4.36,15.05,81.79,81.79,0,0,0-1.53,15.69c2.18,1.17,3.42,2.29,3.71,3.38a8.45,8.45,0,0,1,.11,3.6c-.22,1.31-.48,2.76-.76,4.36a8.85,8.85,0,0,0,1.3,5.67A34.29,34.29,0,0,1,80.19,294q3.16,5.88,6.22,12.2a7.75,7.75,0,0,0,2.72,5.67,8.26,8.26,0,0,0,5.78,2.62q6.32,6.54,12.64,7.08a22.83,22.83,0,0,0,12.65-2.72,58.53,58.53,0,0,0,9.37-3.93,55.51,55.51,0,0,0,8.61-5.56,38.92,38.92,0,0,0,7.09-7.19,29.36,29.36,0,0,0,4.58-8.83,17.89,17.89,0,0,1-1.86-6.21,56.82,56.82,0,0,1-.32-5.89c0-1.81-.08-3.49-.22-5a6.05,6.05,0,0,0-1.75-3.82q-6.31,0-12.64-.54a35.46,35.46,0,0,1-12.86-3.82c0-2,.69-3.19,2.07-3.49a18.34,18.34,0,0,1,5.34-.1q3.27.32,7,.65a12.18,12.18,0,0,0,7-1.42H171c.58.87,1.09,1.6,1.53,2.18a2.49,2.49,0,0,1,.32,1.53c-.07.43-.69.65-1.85.65a5.56,5.56,0,0,1-3.81,2c-1.53.15-3.06.22-4.58.22a32.07,32.07,0,0,0-4.58.33,6.55,6.55,0,0,0-3.81,1.85A124.54,124.54,0,0,0,155,286.8q.76,6.54,1.85,12.54t2.62,11.77q1.51,5.77,3.27,12.1a13.32,13.32,0,0,0-2.62,2.94,9.64,9.64,0,0,1-1.74,2.18,2.2,2.2,0,0,1-1.75.65c-.58-.07-1.38-.69-2.39-1.85a5.5,5.5,0,0,1-2-3.71c-.14-1.45-.22-3-.22-4.57a32.89,32.89,0,0,0-.32-4.69,6.61,6.61,0,0,0-1.85-3.82,34.73,34.73,0,0,1-7,8.07,55,55,0,0,1-8.18,5.67,62.06,62.06,0,0,1-8.93,4.14q-4.7,1.74-9.49,3.27-6.31-1.53-12-3.27a63.43,63.43,0,0,1-10.35-4.14,49.8,49.8,0,0,1-8.72-5.67,33.31,33.31,0,0,1-7.09-8.07q-3.27-6.31-6-10.57A19.16,19.16,0,0,1,69.4,289.2a22.61,22.61,0,0,1-4.68-7.74,33.55,33.55,0,0,1-2-9.27,44.34,44.34,0,0,1,.33-9.26,21.27,21.27,0,0,1,2.4-7.52,78.83,78.83,0,0,1,6.21-30.74,57.81,57.81,0,0,1,19.08-24.42q4.78-1.51,10.13-3.59a48.38,48.38,0,0,1,10.9-2.84,30.64,30.64,0,0,1,10.9.44,21,21,0,0,1,10.14,6,4.94,4.94,0,0,1,3.16,1.42c1.09,1,2.18,2,3.27,3.05a41.47,41.47,0,0,0,3.27,2.95A5.11,5.11,0,0,0,145.7,209Z" transform="translate(63 24)"/><path class="cls-3" d="M221.56,227.07v78a8.63,8.63,0,0,0,1.64,5.67,10.33,10.33,0,0,0,3.92,2.94,13.43,13.43,0,0,0,4.8,1.09c1.67.08,3.09.11,4.25.11A34.46,34.46,0,0,0,252,311.54a40.84,40.84,0,0,0,11.66-8.83,66.33,66.33,0,0,0,8.94-12.42q3.92-7,7.63-14.39v-39a22.63,22.63,0,0,0-6.54-4.91,14.63,14.63,0,0,0-5.67-1.2,24.93,24.93,0,0,0-5.67.66,29.06,29.06,0,0,1-6.54.65v-9.81a19.1,19.1,0,0,1,8.07-2.18q4.35-.21,8.93-.21c3.06,0,6-.11,8.94-.33a20.29,20.29,0,0,0,8.07-2.29,19.3,19.3,0,0,1,2.18,8.17c.14,3,.22,6,.22,9s.11,6,.32,8.94a20.19,20.19,0,0,0,2.29,8.06,91.43,91.43,0,0,0-4.36,24.42q-.65,13.31-.65,24.42a10.64,10.64,0,0,1-.66,3.59,37.92,37.92,0,0,0-1.09,3.71,10.56,10.56,0,0,0-.21,3.71,6.09,6.09,0,0,0,2,3.59,9.84,9.84,0,0,0,7.3.66q3.6-1.09,6.76-2a10.85,10.85,0,0,1,5.89-.11q2.72.76,4.46,6.21a9.56,9.56,0,0,1-2.94,6.76,9,9,0,0,1-6.65,3,30.27,30.27,0,0,0-5.34.65,39.34,39.34,0,0,1-7.52.66,32.33,32.33,0,0,1-8.5-1.2,18.25,18.25,0,0,1-8.07-4.91v-14.6a90.86,90.86,0,0,1-11.77,9.92,63.38,63.38,0,0,1-13.19,7.19,53.07,53.07,0,0,1-14.06,3.49,40.07,40.07,0,0,1-14.61-1.2,15.84,15.84,0,0,1-5.77-4.36,28,28,0,0,1-3.38-5.34q-1.31-2.73-2.51-5.34a14.76,14.76,0,0,0-2.94-4.36V246.69a11.57,11.57,0,0,1,.65-3.82c.44-1.23.8-2.43,1.09-3.59a10.07,10.07,0,0,0,.22-3.6,6.25,6.25,0,0,0-2-3.6,9.35,9.35,0,0,0-7.3-.87c-2.4.73-4.66,1.38-6.76,2a10.86,10.86,0,0,1-5.89.11q-2.73-.76-4.47-6.21,3.71-5.44,8.07-7a27,27,0,0,1,8.94-1.52q4.57,0,9,.32a14.79,14.79,0,0,0,8.18-1.63Z" transform="translate(63 24)"/><path class="cls-3" d="M379.4,222.71a22.19,22.19,0,0,1,3.92,10.46,68.36,68.36,0,0,1,0,10.9q-.44,5.67-.87,11.88a39.92,39.92,0,0,0,1.31,13,99.36,99.36,0,0,1-2.18,20.71,98.91,98.91,0,0,0-2.18,20.71,19,19,0,0,0,7.63,2,55,55,0,0,0,8.39-.22c2.83-.29,5.63-.66,8.39-1.09a50,50,0,0,1,7.85-.66h9.16q6.75,7.2,0,14.17v4.37H337.76a12.82,12.82,0,0,1-7.09-2.19,12.55,12.55,0,0,0-6.86-2.18q-1.76-1.74-1.2-3.48a13.13,13.13,0,0,1,1.85-3.6q1.31-1.85,2.62-3.6a5.78,5.78,0,0,0,1.3-3.49c0-1.16.26-1.81.77-2a3.71,3.71,0,0,1,2.07.22c.87.29,1.88.65,3,1.09a9.75,9.75,0,0,0,3.49.65,18.84,18.84,0,0,0,7.52,2,49,49,0,0,0,8-.22c2.61-.29,5-.66,7.08-1.09a25.79,25.79,0,0,1,4.91-.66,93.33,93.33,0,0,1-1.86-17.87q-.11-9.37.22-19t1-19q.66-9.37.66-18.1-7-3.27-16.68-1.09a178.08,178.08,0,0,0-20.17,5.89,9.07,9.07,0,0,1-4.57-4.25,8.89,8.89,0,0,1-.66-5.12,13.48,13.48,0,0,1,2-5,24.29,24.29,0,0,1,3.27-4.14Zm9.15-36.84a5.51,5.51,0,0,1,1.85,3.48,6.17,6.17,0,0,1-.76,3.38,16,16,0,0,1-2.5,3.38q-1.63,1.75-3.38,3.49a11.16,11.16,0,0,1-4.15,2.62,14.59,14.59,0,0,1-5,.87,15.52,15.52,0,0,1-5.12-.87,10.86,10.86,0,0,1-4.25-2.62,15.35,15.35,0,0,0-3.93-2.83,26,26,0,0,1-3.92-2.4,6.71,6.71,0,0,1-2.4-3.16q-.66-1.86,1.09-5.34a16.44,16.44,0,0,1,6.43-8.5,19.81,19.81,0,0,1,9.81-3.71,16,16,0,0,1,9.81,2.4Q386.8,178.9,388.55,185.87Z" transform="translate(63 24)"/><path class="cls-3" d="M473.13,182.38q0,7-.65,14.71t-1.09,15.16q-.43,7.41-.22,14.27a45,45,0,0,0,2,12.32,95.37,95.37,0,0,1,7.85-7,59.62,59.62,0,0,1,19.4-10.36,35,35,0,0,1,10.47-1.63,27.17,27.17,0,0,1,18.09,6.43,77.55,77.55,0,0,1,14.61,17.11A141,141,0,0,1,546.6,278,76.27,76.27,0,0,1,539,309q-7,10.45-14.61,14.6a37.36,37.36,0,0,1-18.09,4.15,6.84,6.84,0,0,0-3.49-2.08,20.14,20.14,0,0,0-3.59-.32,19.28,19.28,0,0,1-3.6-.33,8.05,8.05,0,0,1-3.71-2.07,3.4,3.4,0,0,1-3.49,1.2,8.73,8.73,0,0,1-3.48-2.29,33.54,33.54,0,0,1-3.49-4.14,35.39,35.39,0,0,0-3.49-4.14,3.92,3.92,0,0,0-.76-2.62,5.47,5.47,0,0,0-1.64-1.31,4.53,4.53,0,0,0-2.4-.65c-1.6,0-2.61.54-3.05,1.63a11.07,11.07,0,0,0-.65,4c0,1.6.07,3.19.22,4.79a7.82,7.82,0,0,1-.55,4,3.22,3.22,0,0,1-3.05,1.75q-2.3.11-6.87-2.29v-32.7a15.75,15.75,0,0,0,1.31-8.5q-.44-5-1.31-10.25c-.58-3.49-1-6.9-1.31-10.25a15.77,15.77,0,0,1,1.31-8.5A49.59,49.59,0,0,1,457.87,238q.44-7.84,1.31-15.7t1.31-15.69a49.66,49.66,0,0,0-1.31-14.83,10.66,10.66,0,0,0-7.63-3.49,61.79,61.79,0,0,0-7.63.44,13.82,13.82,0,0,1-5.88-.33q-2.4-.75-2.4-6c-1.17-2.32-1.53-3.67-1.09-4s1.23-.4,2.4-.11a40.67,40.67,0,0,0,4,.76,4.52,4.52,0,0,0,4-1.42,61.9,61.9,0,0,0,7.74-.54,65,65,0,0,1,8.18-.55,20.74,20.74,0,0,1,7.19,1.2A9,9,0,0,1,473.13,182.38Zm0,117.28h-4.57l4.57,4.58Zm51.67-56.24q-3.49-7-10.46-8.18A106.78,106.78,0,0,0,496.9,234a65.07,65.07,0,0,0-7.85,4.47,48.1,48.1,0,0,0-7.63,6.22,34.4,34.4,0,0,0-5.89,7.85,19.53,19.53,0,0,0-2.4,9.59q-3.48,7-2.39,12.53a35.43,35.43,0,0,0,4.14,10.9q3,5.36,6.86,10.9A38.27,38.27,0,0,1,487.3,309a25.62,25.62,0,0,1,6.44.76c2,.51,3.95,1,6,1.53s4.32,1,6.87,1.52a46.53,46.53,0,0,0,9,.77,42.49,42.49,0,0,1,4.15-3.6,46.84,46.84,0,0,0,4.57-4,22,22,0,0,0,3.71-4.9,12.59,12.59,0,0,0,1.53-6.21,111,111,0,0,0,3.16-12,67.09,67.09,0,0,0,1.41-13.74,46.65,46.65,0,0,0-2.07-13.73A28.65,28.65,0,0,0,524.8,243.42Z" transform="translate(63 24)"/><path class="cls-3" d="M659.09,254.32a46.87,46.87,0,0,0,.54,7.19,43,43,0,0,1,.55,6.54,13.41,13.41,0,0,1-1.2,5.67,9.53,9.53,0,0,1-4.69,4.36,63.38,63.38,0,0,0-42.07,0,36.86,36.86,0,0,0-9.7-2,53.61,53.61,0,0,0-8.4.22c-2.61.29-5.16.65-7.63,1.09a42,42,0,0,1-7.19.65q-3.49,3.5-3.16,6.21a12.11,12.11,0,0,0,2.07,5.34q1.74,2.63,3.82,5.45a10.57,10.57,0,0,1,2.07,6.33,15.59,15.59,0,0,0,4.25,5.45,30.81,30.81,0,0,0,5.12,3.27q2.61,1.31,5.12,2.39a13.7,13.7,0,0,1,4.25,2.84q14.17,0,24.64-6.43A56.21,56.21,0,0,0,644.92,292a9.7,9.7,0,0,1,9.37,9.38,12.43,12.43,0,0,1-1.63,6.32,26.68,26.68,0,0,1-4.25,5.45q-2.62,2.61-5.89,5.45T635.76,325A97.14,97.14,0,0,1,623,328.11a83,83,0,0,1-15.48,1.42,58.08,58.08,0,0,1-15.48-2.07,28.39,28.39,0,0,1-12.75-7.3,92.28,92.28,0,0,0-7.63-9.92q-4.14-4.69-7.63-9.49a50.65,50.65,0,0,1-5.78-10.24A32,32,0,0,1,556,278.08a9.45,9.45,0,0,1,.77-3.6c.5-1.23,1-2.61,1.63-4.14s1.13-3.19,1.64-5a23.46,23.46,0,0,0,.76-6.21,66.94,66.94,0,0,1,5.12-13.74,65.07,65.07,0,0,1,8.18-12.53,52,52,0,0,1,10.9-9.92A41,41,0,0,1,598.05,217a79,79,0,0,1,20.05,2.51,66.28,66.28,0,0,1,17.55,7.3,57,57,0,0,1,14,11.77A55.8,55.8,0,0,1,659.09,254.32Zm-18.75,4.8a14.28,14.28,0,0,0-.76-4.15,22.14,22.14,0,0,0-2.07-4.58,15.53,15.53,0,0,0-3.06-3.7,5.3,5.3,0,0,0-3.48-1.53q-3.5-1.74-7.74-4a45.73,45.73,0,0,0-8.72-3.6,24.25,24.25,0,0,0-8.72-1,12.08,12.08,0,0,0-7.74,3.82,13.71,13.71,0,0,1-4.91,5.77q-3.17,2.09-6.21,4.36a27.92,27.92,0,0,0-5.34,5.24q-2.3,2.94-2.29,8.17,7,0,14.82-.11t15.7-.54q7.84-.43,15.7-1.42A124.86,124.86,0,0,0,640.34,259.12Z" transform="translate(63 24)"/><path class="cls-3" d="M724.27,241q5.44-5.24,11-10.25a54.47,54.47,0,0,1,11.77-8.17,35.49,35.49,0,0,1,13.51-3.71q7.31-.54,16.24,3a5.34,5.34,0,0,1,3.49,1.52,31.44,31.44,0,0,1,3.6,3.82q1.85,2.28,3.6,4.79a30.5,30.5,0,0,0,3.48,4.25v19.19q-3.71,3.5-7.08,4a43.83,43.83,0,0,1-7.09.55,51.25,51.25,0,0,1-6.64-7.63q-3-4.14-2.95-11.34a3.23,3.23,0,0,1,2.07-2.83c1.38-.73,2.69-1.38,3.93-2s1.92-1.23,2.07-2-.95-1.67-3.27-2.83a11.6,11.6,0,0,0-7.2-1.09,20.21,20.21,0,0,0-7.08,2.94,48.94,48.94,0,0,0-7.19,5.67c-2.4,2.26-4.77,4.54-7.09,6.87a19.13,19.13,0,0,1-5.12,6.54q-3.39,2.83-7,6a76.69,76.69,0,0,0-6.86,6.87,25.06,25.06,0,0,0-5,9.16q7.41,7.19,8,14.38a25.65,25.65,0,0,1-3.16,14.17,31.1,31.1,0,0,0,.65,6.65q.66,2.94,4.36,2.94a12.64,12.64,0,0,0,7,1.42q3.48-.33,6.54-.76a16.4,16.4,0,0,1,5.66.11c1.75.36,3.28,1.71,4.58,4a4.77,4.77,0,0,0,.77,2.84,14.37,14.37,0,0,0,1.63,2,20.64,20.64,0,0,1,1.64,1.85,4.38,4.38,0,0,1,.76,2.72,21.68,21.68,0,0,1-7.3,2.08q-3.6.32-7.2.32t-7.08.33a19.7,19.7,0,0,0-7,2.07,21.27,21.27,0,0,1-7.3-1.31,68,68,0,0,0-7.2-2.18,19.84,19.84,0,0,0-7.19-.43,12.28,12.28,0,0,0-7.09,3.92,4.31,4.31,0,0,0-.76-2.72,4.83,4.83,0,0,0-1.63-1.42,4.56,4.56,0,0,0-2.4-.66q-3.5,3.71-7.09,4.26a49,49,0,0,1-7.3.54q-1.74-1.74-3.38-3.6a13.65,13.65,0,0,1-2.51-4,10.69,10.69,0,0,1-.65-4.9,19.22,19.22,0,0,1,2-6.44H710.1v-76.3a8.17,8.17,0,0,0-5.13-2.61,19.37,19.37,0,0,0-5.66.43,60.82,60.82,0,0,0-5.89,1.64,28.84,28.84,0,0,1-5.89,1.31,10.8,10.8,0,0,1-5.66-.87,12.81,12.81,0,0,1-5.13-4.69,9.31,9.31,0,0,1,3-6.54,9,9,0,0,1,6.64-3q7,0,14.17-.55a39.71,39.71,0,0,0,14.39-4,9,9,0,0,1,4.69,5,30.48,30.48,0,0,1,1.63,6.87q.43,3.6.88,6.87A8.38,8.38,0,0,0,724.27,241Z" transform="translate(63 24)"/><path class="cls-3" d="M844.38,176.93a65,65,0,0,1-.76,10.24q-.76,4.8-1.63,9.38c-.59,3-1.13,6.14-1.64,9.26a63.16,63.16,0,0,0-.76,10.14l4.79,4.8a34.58,34.58,0,0,0,14.39.87q7.2-1.1,13.52-2a42,42,0,0,1,11.66-.11q5.34.76,9,6.21a9,9,0,0,1-3,6.65,9.56,9.56,0,0,1-6.76,2.94,23.07,23.07,0,0,0-8.83-2,87.61,87.61,0,0,0-10.57.22q-5.46.44-10.69,1.09a73.54,73.54,0,0,1-8.72.65,80.13,80.13,0,0,0-2.07,14.72q-.31,7.31-.32,14.6t-.33,14.5a75.89,75.89,0,0,1-2.07,14.39,24,24,0,0,1,2.18,7.19q.43,3.5.87,6.33a9.33,9.33,0,0,0,1.74,4.46q1.32,1.63,5,1.64,1.74,3.7,3.49,4.14a7.11,7.11,0,0,0,3.49,0c1.16-.29,2.36-.54,3.59-.76a4.55,4.55,0,0,1,3.82,1.41,16.3,16.3,0,0,0,8.72-6.54q3.27-4.79,6.43-9.8a43.65,43.65,0,0,1,7.41-8.94q4.24-3.93,11.44-3.93a7.59,7.59,0,0,0,.66,3.05,20.92,20.92,0,0,0,1.42,3.17,15.13,15.13,0,0,0,2.72,3.59,37.52,37.52,0,0,0-9.48,9.38q-4,5.67-8.18,10.68a35.64,35.64,0,0,1-9,8q-4.9,2.94-12.1,1.2a58.79,58.79,0,0,1-20.5-3.71,30.56,30.56,0,0,1-8.06-4.47,20,20,0,0,1-5.45-6.43,14.5,14.5,0,0,0-1.42-6.54q-1.41-2.83-2.72-5.12a19.32,19.32,0,0,1-1.86-4.15,4,4,0,0,1,1.2-3.81,77.41,77.41,0,0,0,2.07-15.15q.33-8,.33-15.7t.33-14.82a48.44,48.44,0,0,1,2.07-12.54,41.2,41.2,0,0,1-7.3-.65q-3.6-.66-7.2-1.09a41.24,41.24,0,0,0-7.3-.22,20.23,20.23,0,0,0-7.41,2c-2.48,0-3.89-1-4.25-2.94a36.1,36.1,0,0,1-.55-6.65,19,19,0,0,1,7.41-4.9,25,25,0,0,1,7.74-1.2,76.55,76.55,0,0,1,8.72.54,86.41,86.41,0,0,0,10.14.55,22.4,22.4,0,0,0,.87-11.67q-1.1-6.21-2-12.64a49.12,49.12,0,0,1-.11-12.64c.51-4.15,2.58-8,6.21-11.67a4.86,4.86,0,0,1,2.84.77,15.13,15.13,0,0,1,2,1.63,14.54,14.54,0,0,0,2,1.64A4.83,4.83,0,0,0,844.38,176.93Z" transform="translate(63 24)"/></g></svg>