<?xml version="1.0" encoding="utf-8"?>
<!-- Generator: Adobe Illustrator 23.0.3, SVG Export Plug-In . SVG Version: 6.00 Build 0)  -->
<svg version="1.1" id="Calque_1" xmlns="http://www.w3.org/2000/svg" xmlns:xlink="http://www.w3.org/1999/xlink" x="0px" y="0px"
	 viewBox="0 0 983 371" style="enable-background:new 0 0 983 371;" xml:space="preserve">
<style type="text/css">
	.st0{enable-background:new    ;}
	.st1{fill:#FFFFFF;}
</style>
<title>Plan de travail 1</title>
<g class="st0">
	<path class="st1" d="M116.6,175.9c-2.3,2-6,3.8-10.9,5.3c-4.9,1.5-10.3,2.3-16.1,2.3c-7,0-13-1-18-3.1s-8.4-5-10.3-8.6
		c-1.8-3.8-4.1-8.8-6.8-14.9c-2.7-6.1-5.5-12.9-8.4-20.4c-2.9-7.5-5.9-15.5-9-23.9c-3.1-8.4-6-17-8.9-25.6c-2.8-8.7-5.5-17.2-8-25.5
		c-2.5-8.3-4.7-16.2-6.5-23.5c2.3-2.3,5.7-4.5,10.1-6.4c4.4-1.9,9.1-2.9,14.1-2.9c6.2,0,11.2,1.3,15.1,3.9c3.9,2.6,6.8,7.4,8.6,14.4
		c4.5,16.3,9,32,13.6,46.9c4.6,14.9,9.4,30.5,14.4,46.6h1.5c4.5-15.7,9.1-32.8,13.9-51.3s9.3-36.9,13.6-55.3c3-1.5,6.2-2.8,9.6-3.8
		c3.4-1,7.3-1.5,11.6-1.5c6.2,0,11.4,1.4,15.8,4.1c4.3,2.8,6.5,7.3,6.5,13.6c0,3.7-0.9,9-2.6,16s-4,14.9-6.8,23.6
		s-5.8,17.9-9.3,27.4c-3.4,9.5-6.8,18.5-10.3,26.9c-3.4,8.4-6.6,15.8-9.6,22.3C120.9,169,118.5,173.4,116.6,175.9z"/>
	<path class="st1" d="M231.1,55.7c9,0,17.2,0.9,24.6,2.8c7.4,1.8,13.8,4.6,19,8.4s9.3,8.5,12.1,14.3c2.8,5.8,4.3,12.5,4.3,20.4v56
		c0,4.3-1.2,7.9-3.6,10.6c-2.4,2.8-5.3,5.1-8.6,7.1c-10.8,6.5-26.1,9.8-45.8,9.8c-8.8,0-16.8-0.8-23.9-2.5
		c-7.1-1.7-13.2-4.2-18.3-7.5c-5.1-3.3-9-7.6-11.8-12.8c-2.8-5.2-4.1-11.2-4.1-18c0-11.5,3.4-20.3,10.3-26.5
		c6.8-6.2,17.4-10,31.8-11.5l32.8-3.5v-1.8c0-4.8-2.1-8.3-6.4-10.4c-4.3-2.1-10.4-3.1-18.4-3.1c-6.3,0-12.5,0.7-18.5,2
		c-6,1.3-11.4,3-16.3,5c-2.2-1.5-4-3.8-5.5-6.9c-1.5-3.1-2.3-6.3-2.3-9.6c0-4.3,1-7.8,3.1-10.4c2.1-2.6,5.3-4.8,9.6-6.6
		c4.8-1.8,10.5-3.2,17.1-4C219.1,56.1,225.3,55.7,231.1,55.7z M233.1,153.9c2.8,0,6-0.3,9.4-0.9c3.4-0.6,6-1.4,7.6-2.4v-20l-18,1.5
		c-4.7,0.3-8.5,1.3-11.5,3c-3,1.7-4.5,4.2-4.5,7.5c0,3.3,1.3,6,3.9,8.1C222.6,152.9,227,153.9,233.1,153.9z"/>
	<path class="st1" d="M360.4,180.7c-1.8,0.3-4.5,0.8-8.1,1.4c-3.6,0.6-7.2,0.9-10.9,0.9c-3.7,0-7-0.3-9.9-0.8
		c-2.9-0.5-5.4-1.5-7.4-3s-3.5-3.5-4.6-6.1c-1.1-2.6-1.6-6-1.6-10.1v-145c1.8-0.3,4.5-0.8,8.1-1.4c3.6-0.6,7.2-0.9,10.9-0.9
		c3.7,0,7,0.3,9.9,0.8c2.9,0.5,5.4,1.5,7.4,3s3.5,3.5,4.6,6.1c1.1,2.6,1.6,6,1.6,10.1V180.7z"/>
	<path class="st1" d="M451.4,184.9c-9.8,0-19-1.4-27.4-4.1c-8.4-2.8-15.8-6.9-22-12.4s-11.2-12.4-14.8-20.8
		c-3.6-8.3-5.4-18.1-5.4-29.3c0-11,1.8-20.5,5.4-28.4c3.6-7.9,8.3-14.4,14.1-19.5c5.8-5.1,12.5-8.8,20-11.3c7.5-2.4,15.2-3.6,23-3.6
		c8.8,0,16.9,1.3,24.1,4c7.3,2.7,13.5,6.3,18.8,11c5.3,4.7,9.3,10.3,12.3,16.8c2.9,6.5,4.4,13.6,4.4,21.3c0,5.7-1.6,10-4.8,13
		c-3.2,3-7.6,4.9-13.3,5.8l-61.8,9.3c1.8,5.5,5.6,9.6,11.3,12.4c5.7,2.8,12.2,4.1,19.5,4.1c6.8,0,13.3-0.9,19.4-2.6
		c6.1-1.8,11-3.8,14.9-6.1c2.7,1.7,4.9,4,6.8,7c1.8,3,2.8,6.2,2.8,9.5c0,7.5-3.5,13.1-10.5,16.8c-5.3,2.8-11.3,4.8-18,5.8
		C463.5,184.4,457.2,184.9,451.4,184.9z M444.4,86.7c-4,0-7.5,0.7-10.4,2c-2.9,1.3-5.3,3-7.1,5.1c-1.8,2.1-3.2,4.4-4.1,7
		c-0.9,2.6-1.5,5.2-1.6,7.9l42.8-7c-0.5-3.3-2.3-6.7-5.5-10C455.2,88.3,450.5,86.7,444.4,86.7z"/>
	<path class="st1" d="M601.4,103.9c0-5.2-1.5-9-4.4-11.4c-2.9-2.4-6.9-3.6-11.9-3.6c-3.3,0-6.6,0.4-9.9,1.3c-3.3,0.8-6,2.1-8.4,3.8
		v86.8c-1.7,0.5-4.3,1-7.9,1.5c-3.6,0.5-7.3,0.8-11.1,0.8c-3.7,0-7-0.3-9.9-0.8c-2.9-0.5-5.4-1.5-7.4-3s-3.5-3.5-4.6-6.1
		c-1.1-2.6-1.6-6-1.6-10.1v-75c0-4.5,1-8.2,2.9-11c1.9-2.8,4.5-5.4,7.9-7.8c5.7-4,12.8-7.3,21.4-9.8c8.6-2.5,18.1-3.8,28.6-3.8
		c18.8,0,33.3,4.1,43.5,12.4c10.2,8.3,15.3,19.7,15.3,34.4v78.3c-1.7,0.5-4.3,1-7.9,1.5c-3.6,0.5-7.3,0.8-11.1,0.8
		c-3.7,0-7-0.3-9.9-0.8c-2.9-0.5-5.4-1.5-7.4-3s-3.5-3.5-4.6-6.1c-1.1-2.6-1.6-6-1.6-10.1V103.9z"/>
	<path class="st1" d="M712.6,139.2c0,4.3,1.4,7.4,4.1,9.3c2.8,1.8,6.6,2.8,11.6,2.8c2.5,0,5.1-0.2,7.8-0.6c2.7-0.4,5-1,7-1.6
		c1.5,1.8,2.8,3.9,3.9,6.1c1.1,2.3,1.6,5,1.6,8.1c0,6.3-2.4,11.5-7.1,15.5s-13.1,6-25.1,6c-14.7,0-26-3.3-33.9-10
		c-7.9-6.7-11.9-17.5-11.9-32.5v-107c1.8-0.5,4.5-1,7.9-1.6c3.4-0.6,7-0.9,10.9-0.9c7.3,0,13,1.3,17.1,3.9c4.1,2.6,6.1,8,6.1,16.4
		v16h32.8c1,1.8,2,4.1,2.9,6.9c0.9,2.8,1.4,5.8,1.4,9.1c0,5.8-1.3,10-3.9,12.6c-2.6,2.6-6,3.9-10.4,3.9h-22.8V139.2z"/>
	<path class="st1" d="M769.1,25.7c0-6.3,2.1-11.7,6.4-16c4.3-4.3,9.9-6.5,16.9-6.5s12.6,2.2,16.9,6.5c4.3,4.3,6.4,9.7,6.4,16
		c0,6.3-2.1,11.7-6.4,16c-4.3,4.3-9.9,6.5-16.9,6.5s-12.6-2.2-16.9-6.5C771.2,37.3,769.1,32,769.1,25.7z M813.6,180.7
		c-1.8,0.3-4.5,0.8-8.1,1.4c-3.6,0.6-7.2,0.9-10.9,0.9c-3.7,0-7-0.3-9.9-0.8c-2.9-0.5-5.4-1.5-7.4-3s-3.5-3.5-4.6-6.1
		c-1.1-2.6-1.6-6-1.6-10.1V61.2c1.8-0.3,4.5-0.8,8.1-1.4c3.6-0.6,7.2-0.9,10.9-0.9c3.7,0,7,0.3,9.9,0.8c2.9,0.5,5.4,1.5,7.4,3
		s3.5,3.5,4.6,6.1c1.1,2.6,1.6,6,1.6,10.1V180.7z"/>
	<path class="st1" d="M917.6,103.9c0-5.2-1.5-9-4.4-11.4c-2.9-2.4-6.9-3.6-11.9-3.6c-3.3,0-6.6,0.4-9.9,1.3c-3.3,0.8-6,2.1-8.4,3.8
		v86.8c-1.7,0.5-4.3,1-7.9,1.5c-3.6,0.5-7.3,0.8-11.1,0.8c-3.7,0-7-0.3-9.9-0.8c-2.9-0.5-5.4-1.5-7.4-3s-3.5-3.5-4.6-6.1
		c-1.1-2.6-1.6-6-1.6-10.1v-75c0-4.5,1-8.2,2.9-11c1.9-2.8,4.5-5.4,7.9-7.8c5.7-4,12.8-7.3,21.4-9.8c8.6-2.5,18.1-3.8,28.6-3.8
		c18.8,0,33.3,4.1,43.5,12.4c10.2,8.3,15.3,19.7,15.3,34.4v78.3c-1.7,0.5-4.3,1-7.9,1.5c-3.6,0.5-7.3,0.8-11.1,0.8
		c-3.7,0-7-0.3-9.9-0.8c-2.9-0.5-5.4-1.5-7.4-3s-3.5-3.5-4.6-6.1c-1.1-2.6-1.6-6-1.6-10.1V103.9z"/>
</g>
<g class="st0">
	<path class="st1" d="M210.3,335c0,5.2-0.9,9-2.8,11.5c-1.8,2.5-4.8,4.9-8.8,7.3c-2.3,1.3-5.3,2.6-8.8,3.9s-7.3,2.3-11.5,3.3
		c-4.2,0.9-8.5,1.6-13.1,2.1c-4.6,0.5-9.1,0.8-13.6,0.8c-12,0-23.3-1.6-33.8-4.9s-19.6-8.2-27.4-14.8c-7.8-6.6-13.9-14.8-18.4-24.6
		c-4.5-9.8-6.8-21.3-6.8-34.3c0-13.7,2.5-25.6,7.4-35.8c4.9-10.2,11.4-18.6,19.5-25.4c8.1-6.8,17.3-11.8,27.8-15.1
		c10.4-3.3,21.1-5,32.1-5c15.8,0,28.4,2.5,37.6,7.6c9.3,5.1,13.9,11.7,13.9,19.9c0,4.3-1.1,8.1-3.3,11.3c-2.2,3.2-4.7,5.7-7.5,7.5
		c-4.2-2.5-9.4-5-15.6-7.4c-6.3-2.4-13.3-3.6-21.1-3.6c-14,0-25.1,4-33.4,12s-12.4,19.1-12.4,33.3c0,7.7,1.1,14.3,3.4,19.9
		c2.3,5.6,5.3,10.2,9.1,13.8c3.8,3.6,8.3,6.3,13.3,8s10.3,2.6,16,2.6c3.7,0,6.9-0.3,9.8-1c2.8-0.7,5-1.4,6.5-2.3V302h-26.8
		c-1-1.8-2-4.3-2.9-7.3c-0.9-3-1.4-6.2-1.4-9.5c0-6,1.4-10.3,4.1-13c2.8-2.7,6.3-4,10.6-4h42.3c5,0,8.9,1.4,11.6,4.1
		s4.1,6.6,4.1,11.6V335z"/>
	<path class="st1" d="M235.8,240c1.7-0.5,4.3-1,7.9-1.5c3.6-0.5,7.3-0.8,11.1-0.8c3.7,0,7,0.3,9.9,0.8c2.9,0.5,5.4,1.5,7.4,3
		s3.5,3.5,4.6,6.1c1.1,2.6,1.6,6,1.6,10.1v53.8c0,6.8,1.7,11.7,5,14.6c3.3,2.9,8.2,4.4,14.5,4.4c3.8,0,7-0.3,9.4-1
		c2.4-0.7,4.3-1.3,5.6-2V240c1.7-0.5,4.3-1,7.9-1.5c3.6-0.5,7.3-0.8,11.1-0.8c3.7,0,7,0.3,9.9,0.8c2.9,0.5,5.4,1.5,7.4,3
		s3.5,3.5,4.6,6.1c1.1,2.6,1.6,6,1.6,10.1v76c0,8.3-3.5,14.6-10.5,18.8c-5.8,3.7-12.8,6.5-20.9,8.4c-8.1,1.9-16.9,2.9-26.4,2.9
		c-9,0-17.3-1-24.9-3c-7.6-2-14.1-5.1-19.6-9.3c-5.5-4.2-9.8-9.5-12.8-16.1c-3-6.6-4.5-14.5-4.5-23.9V240z"/>
	<path class="st1" d="M380.3,204.5c0-6.3,2.1-11.7,6.4-16c4.3-4.3,9.9-6.5,16.9-6.5s12.6,2.2,16.9,6.5c4.3,4.3,6.4,9.7,6.4,16
		c0,6.3-2.1,11.7-6.4,16c-4.3,4.3-9.9,6.5-16.9,6.5s-12.6-2.2-16.9-6.5C382.4,216.2,380.3,210.8,380.3,204.5z M424.8,359.5
		c-1.8,0.3-4.5,0.8-8.1,1.4c-3.6,0.6-7.2,0.9-10.9,0.9c-3.7,0-7-0.3-9.9-0.8c-2.9-0.5-5.4-1.5-7.4-3s-3.5-3.5-4.6-6.1
		c-1.1-2.6-1.6-6-1.6-10.1V240c1.8-0.3,4.5-0.8,8.1-1.4c3.6-0.6,7.2-0.9,10.9-0.9c3.7,0,7,0.3,9.9,0.8c2.9,0.5,5.4,1.5,7.4,3
		s3.5,3.5,4.6,6.1c1.1,2.6,1.6,6,1.6,10.1V359.5z"/>
	<path class="st1" d="M452.3,197c1.7-0.5,4.3-1,8-1.6c3.7-0.6,7.4-0.9,11.3-0.9c3.7,0,7,0.3,9.9,0.8c2.9,0.5,5.4,1.5,7.4,3
		s3.5,3.5,4.5,6.1c1,2.6,1.5,6,1.5,10.1V239c4.2-1.7,8.1-2.8,11.9-3.5c3.8-0.7,7.9-1,12.4-1c8,0,15.6,1.4,22.8,4.3
		c7.2,2.8,13.5,7,19,12.4c5.5,5.4,9.8,12.1,13,20.1c3.2,8,4.8,17.3,4.8,27.8c0,10.8-1.6,20.3-4.9,28.4c-3.3,8.1-7.8,14.8-13.6,20.1
		c-5.8,5.3-13,9.4-21.4,12.1c-8.4,2.8-17.7,4.1-27.9,4.1c-11,0-20.3-1.3-28-3.9c-7.7-2.6-14.2-5.8-19.5-9.6c-7.3-5.2-11-11.8-11-20
		V197z M510.8,330.3c7.7,0,13.6-2.6,17.9-7.9s6.4-13,6.4-23.4c0-10.5-2.2-18.3-6.5-23.5c-4.3-5.2-10.2-7.8-17.5-7.8
		c-3.3,0-6.2,0.3-8.6,1c-2.4,0.7-5,1.7-7.9,3v54.5c1.8,1.2,4,2.1,6.6,2.9C503.7,329.9,506.9,330.3,510.8,330.3z"/>
	<path class="st1" d="M663.5,363.8c-9.8,0-19-1.4-27.4-4.1c-8.4-2.8-15.8-6.9-22-12.4s-11.2-12.4-14.8-20.8
		c-3.6-8.3-5.4-18.1-5.4-29.3c0-11,1.8-20.5,5.4-28.4c3.6-7.9,8.3-14.4,14.1-19.5c5.8-5.1,12.5-8.8,20-11.3c7.5-2.4,15.2-3.6,23-3.6
		c8.8,0,16.9,1.3,24.1,4c7.3,2.7,13.5,6.3,18.8,11c5.3,4.7,9.3,10.3,12.3,16.8c2.9,6.5,4.4,13.6,4.4,21.3c0,5.7-1.6,10-4.8,13
		c-3.2,3-7.6,4.9-13.3,5.8l-61.8,9.3c1.8,5.5,5.6,9.6,11.3,12.4c5.7,2.8,12.2,4.1,19.5,4.1c6.8,0,13.3-0.9,19.4-2.6
		c6.1-1.8,11-3.8,14.9-6.1c2.7,1.7,4.9,4,6.8,7c1.8,3,2.8,6.2,2.8,9.5c0,7.5-3.5,13.1-10.5,16.8c-5.3,2.8-11.3,4.8-18,5.8
		C675.6,363.3,669.3,363.8,663.5,363.8z M656.5,265.5c-4,0-7.5,0.7-10.4,2c-2.9,1.3-5.3,3-7.1,5.1c-1.8,2.1-3.2,4.4-4.1,7
		c-0.9,2.6-1.5,5.2-1.6,7.9l42.8-7c-0.5-3.3-2.3-6.7-5.5-10C667.3,267.2,662.7,265.5,656.5,265.5z"/>
	<path class="st1" d="M779,359.5c-1.7,0.5-4.3,1-7.9,1.5c-3.6,0.5-7.3,0.8-11.1,0.8c-3.7,0-7-0.3-9.9-0.8c-2.9-0.5-5.4-1.5-7.4-3
		s-3.5-3.5-4.6-6.1c-1.1-2.6-1.6-6-1.6-10.1v-75c0-3.8,0.7-7.1,2.1-9.9c1.4-2.8,3.5-5.2,6.1-7.4c2.7-2.2,6-4.1,9.9-5.9
		c3.9-1.8,8.1-3.3,12.6-4.6c4.5-1.3,9.2-2.4,14-3.1c4.8-0.8,9.7-1.1,14.5-1.1c8,0,14.3,1.5,19,4.6c4.7,3.1,7,8.1,7,15.1
		c0,2.3-0.3,4.6-1,6.9c-0.7,2.3-1.5,4.3-2.5,6.1c-3.5,0-7.1,0.2-10.8,0.5c-3.7,0.3-7.3,0.8-10.8,1.5c-3.5,0.7-6.8,1.4-9.9,2.1
		c-3.1,0.8-5.7,1.6-7.9,2.6V359.5z"/>
	<path class="st1" d="M881.7,318c0,4.3,1.4,7.4,4.1,9.3c2.8,1.8,6.6,2.8,11.6,2.8c2.5,0,5.1-0.2,7.8-0.6c2.7-0.4,5-1,7-1.6
		c1.5,1.8,2.8,3.9,3.9,6.1c1.1,2.3,1.6,5,1.6,8.1c0,6.3-2.4,11.5-7.1,15.5s-13.1,6-25.1,6c-14.7,0-26-3.3-33.9-10
		c-7.9-6.7-11.9-17.5-11.9-32.5V214c1.8-0.5,4.5-1,7.9-1.6c3.4-0.6,7-0.9,10.9-0.9c7.3,0,13,1.3,17.1,3.9c4.1,2.6,6.1,8,6.1,16.4v16
		h32.8c1,1.8,2,4.1,2.9,6.9c0.9,2.8,1.4,5.8,1.4,9.1c0,5.8-1.3,10-3.9,12.6c-2.6,2.6-6,3.9-10.4,3.9h-22.8V318z"/>
</g>
</svg>
