<?xml version="1.0" encoding="utf-8"?>
<!-- Generator: Adobe Illustrator 23.0.3, SVG Export Plug-In . SVG Version: 6.00 Build 0)  -->
<svg version="1.1" id="Calque_1" xmlns="http://www.w3.org/2000/svg" xmlns:xlink="http://www.w3.org/1999/xlink" x="0px" y="0px"
	 viewBox="0 0 1032 405" style="enable-background:new 0 0 1032 405;" xml:space="preserve">
<style type="text/css">
	.st0{fill:none;}
	.st1{fill:#FFFFFF;}
</style>
<title>name_dark</title>
<rect x="-24" y="29" class="st0" width="1072" height="229"/>
<g>
	<path class="st1" d="M57.9,56.6c0,2-0.6,3.2-2,3.6c-1.5,0.4-3,0.6-4.6,0.5c-1.8,0-3.6,0.2-5.3,0.4c-1.9,0.4-3.5,1.7-4.3,3.5
		c0.1,2.3,1,4.4,2.5,6.1c1.7,2,3.5,4.1,5.6,6.1c0,7.8,0.8,15.6,2.6,23.2c1.8,7.3,3.8,14.6,6,21.7c2.2,7.1,4.5,14.3,6.8,21.6
		c2.3,7.5,3.9,15.3,4.9,23.1v4.1c1.9-3.9,3.3-8,4.1-12.3c0.8-4.2,2.2-8.3,4.2-12.1c1-3.2,1.8-6.4,2.4-9.7c0.6-3.4,1.1-6.8,1.6-10.1
		c0.6-3.4,1.1-6.5,1.6-9.4c0.5-2.6,1.3-5.1,2.4-7.4c1-5.1,2-9.7,3.1-13.9c1-4.2,2-8.3,3.1-12.1c1-3.8,2-7.6,3.1-11.2
		c1-3.6,2-7.5,3-11.6c-1.8,0-3.6,0.1-5.3,0.4c-1.4,0.3-2.8,0.4-4.3,0.4c-1.3,0-2.5-0.3-3.6-1c-1.4-1-2.5-2.4-3.2-4
		c0-1.9,0.2-3.7,0.5-5.6c0.4-1.7,1.6-2.5,3.6-2.5c3,1,6.1,1.6,9.3,1.6c3.1,0.1,6.3,0,9.6-0.2s6.7-0.5,10.3-0.9
		c3.6-0.4,7.5-0.5,11.6-0.5c0,1,0,2.4-0.1,4.3c-0.1,1.8-0.4,3.6-0.9,5.3c-0.5,1.7-1.3,3.3-2.5,4.6c-1.2,1.4-3,2.1-4.8,2
		c-3.9-3.9-8-3.9-12.2,0c-2,10.3-4.1,20.5-6.1,30.6s-4.1,20.2-6.1,30.4c-2,8.3-4.1,16.5-6.1,24.5c-2,8.1-4.1,16.2-6.1,24.3
		c-2,2-4.1,3.9-6.1,5.7c-1.7,1.6-3.8,2.5-6.1,2.6c-4.1-1-7-2.9-8.8-5.8c-1.9-3-3.3-6.2-4.2-9.6c-1-3.6-2-7.2-2.8-11
		c-0.8-3.7-2.3-7.1-4.4-10.3c0-3.9-0.4-7.8-1.3-11.6c-0.9-3.6-1.8-7.1-2.7-10.3s-1.9-6.5-2.7-9.6c-0.9-3-1.3-6.1-1.3-9.3
		c0.1-7.4-0.8-14.8-2.6-22c-1.7-6.4-3.6-12.7-5.6-18.8c0-2-0.8-3.2-2.5-3.5c-1.8-0.3-3.7-0.5-5.6-0.4c-0.6,0.8-1.5,1.3-2.4,1.6
		c-0.6,0.1-1.1,0-1.6-0.2c-0.6-0.2-1.1-0.5-1.6-0.9c-0.7-0.4-1.6-0.6-2.4-0.5c-0.8-0.6-1.4-1.5-1.8-2.4c-0.1-0.6-0.1-1.2,0.2-1.7
		c0.3-0.6,0.6-1.2,1-1.8c0.4-0.7,0.6-1.6,0.5-2.4c0-2,0.6-3.2,2-3.4c1.5-0.2,3.1-0.1,4.6,0.4c1.7,0.5,3.5,1.1,5.3,1.9
		c1.3,0.6,2.8,1,4.2,1.1h8.3c0.9-1.9,2.4-3.5,4.2-4.5c1.6-0.9,3.5-1.3,5.3-1.1c1.9,0.2,3.5,1.2,4.7,2.7
		C57.3,51.3,57.9,53.6,57.9,56.6z"/>
	<path class="st1" d="M234.1,90.4c1.3,6.4,2,12.9,2.2,19.4c0.1,6.7,0,13.3-0.3,19.8c-0.4,6.6-0.8,12.9-1.2,19
		c-0.4,6.1-0.7,11.6-0.6,16.6c1,2.1,2.6,3.8,4.6,5c1.7,0.9,3.5,1.5,5.3,1.9c1.8,0.4,3.6,0.6,5.4,0.9c1.7,0.2,3.4,1,4.6,2.3h10
		c0,1.2-0.3,2.4-0.8,3.5c-0.5,1.1-1.1,2.2-1.8,3.3c-0.7,1.1-1.5,2.2-2.4,3.3c-2.5,0-5,0.2-7.4,0.5c-2.5,0.4-5,0.5-7.5,0.6
		c-2.6,0-5.1-0.4-7.5-1.3c-2.9-1.1-5.5-2.8-7.6-5c0-2.5-0.2-5-0.5-7.4c-0.4-2.5-1.8-4.9-4.3-7.4c-4.6,4.7-10,8.7-15.9,11.7
		c-5.4,2.6-11.2,4.6-17.1,5.8c-6,1.2-12,2-18.1,2.2c-6.2,0.2-12.4,0.3-18.6,0.3c-15-10-19.9-25-14.8-44.9c2.9-4.5,6.8-8.3,11.4-11.1
		c4.3-2.5,8.9-4.2,13.7-5.2c5-1,10.1-1.6,15.2-1.7l15.6-0.4c5.1-0.1,10.1-0.6,15.1-1.5c4.8-0.8,9.4-2.5,13.5-5c0-2.5,0-5.2-0.1-8.1
		c-0.1-2.7-0.4-5.4-1.1-8.1c-0.6-2.2-1.6-4.4-2.9-6.2c-1.4-1.7-3.5-2.6-5.7-2.5c-14.6-4.8-30.3-4.8-44.9,0c0.9,1,1.7,2.1,2.4,3.3
		c0.7,1,1.3,2.1,1.9,3.3c0.5,1.2,0.8,2.4,0.8,3.7c-1.1,0-2.1,0.2-3,0.8c-0.7,0.5-1.6,1-2.5,1.6c-1.1,0.7-2.3,1.2-3.6,1.6
		c-1.9,0.6-3.9,0.8-5.9,0.8c-1.7,0-3.4-0.2-5-0.7c-1.2-0.3-2.3-0.8-3.3-1.4c-1-0.6-1.6-1.6-1.5-2.7c-2.6,0-4.1-1.1-4.6-3.3
		c-0.4-2.3-0.7-4.7-0.7-7c3.6-4.8,8.3-8.7,13.8-11.3c5.3-2.6,11-4.4,16.9-5.3c5.9-0.9,11.8-1.2,17.7-0.7c5.5,0.4,11,1.2,16.4,2.6
		c5,0,10,1.3,14.4,3.7C228,81.9,231.7,85.7,234.1,90.4z M214.2,155.2c3.5,0,5.7-1,6.8-3c1.1-2.3,1.5-4.9,1.2-7.4
		c-0.3-3.2-0.8-6.3-1.6-9.4c-0.8-2.9-1.3-5.8-1.5-8.8c-0.2,1.8-1.6,3.2-3.4,3.3c-2.2,0.3-4.4,0.4-6.6,0.4c-3.4,1.8-7.2,2.8-11,2.9
		c-4,0.2-8.1,0.3-12.2,0.1l-12.2-0.4c-3.7-0.2-7.4,0.2-10.9,1.2c-3.2,0.9-6.2,2.7-8.5,5.1c-2.4,2.5-4,6.2-4.7,11.1
		c0.2,9.2,3.6,18,9.8,24.9c5.6,1.1,11.3,1.5,17,1c4.9-0.5,9.7-1.7,14.2-3.6c4.4-1.9,8.5-4.4,12.3-7.3
		C206.8,162.2,210.6,158.8,214.2,155.2z"/>
	<path class="st1" d="M328.9,39.8c0.9-1,2.1-1.7,3.4-1.8c1-0.1,2,0.1,2.8,0.7c0.9,0.6,1.6,1.4,2,2.4c0.5,1,0.7,2.1,0.8,3.2v117.1
		c-1.2,0-1.8,0.3-1.9,0.8c-0.1,0.7,0,1.4,0.2,2.1c0.3,1,0.6,2,1,2.9c0.4,1.1,0.6,2.2,0.6,3.4h40.8c1.1,0,2.2,0.3,3.2,0.8
		c1,0.4,1.8,1.1,2.4,2.1c0.5,0.9,0.7,1.9,0.6,2.9c-0.2,1.3-0.8,2.4-1.9,3.2c-0.9,1.9-2.3,3.4-4,4.5c-1.5,0.8-3.3,1.2-5,1.2
		c-1.7,0-3.4-0.2-5-0.6c-1.4-0.3-2.8-0.5-4.1-0.5c-5.3,1.1-10.7,1.7-16.1,1.9c-5.1,0.1-10,0-14.7-0.2s-9.4-0.6-14-1
		c-4.6-0.4-9.1-0.6-13.6-0.6c-2.9,0-5.8,0.2-8.6,0.6c-2.4,0.4-4.6,0.8-6.5,1c-1.9,0.2-3.8,0.3-5.7,0.2c-2.2-0.2-4.3-0.8-6.2-1.9
		c-2.2,0-3.7-0.3-4.5-0.9c-0.8-0.6-1.2-1.5-1.2-2.5c0-1.4,0.2-2.9,0.5-4.3c0.4-1.9,0.6-3.9,0.5-5.9c3.5-2.3,6.7-3.4,9.7-3.3
		c3,0.2,6.1,0.7,9,1.5c3,0.9,6.4,1.7,9.9,2.4c4,0.7,8.2,0.5,12.1-0.7c0,1.2,0.2,1.8,0.6,2c0.5,0.1,1.1,0.1,1.5-0.2
		c0.6-0.4,1.3-1,2.2-1.8c2.3-2.5,3.7-4.8,4-7c0.4-2.2,0.5-4.3,0.5-6.5c-1.2-6.9-1.6-13.9-1.3-20.9c0.3-7.3,0.7-14.6,1.2-21.9
		c0.5-7.3,0.9-14.6,1.2-21.8c0.3-7-0.1-14-1.1-21V57.9c-1.4-2.3-3.9-3.8-6.6-3.9c-3.3-0.3-6.6-0.2-9.9,0.1
		c-3.6,0.4-7.2,0.8-10.9,1.3c-3.2,0.5-6.6,0.5-9.8,0c-2.7-0.4-5.1-2-6.5-4.3c-1.5-2.3-1.9-6.1-1.2-11.3L328.9,39.8z"/>
	<path class="st1" d="M497,109.8c0,2.4,0.1,4.8,0.5,7.2c0.4,2.2,0.5,4.3,0.5,6.5c0,2-0.4,3.9-1.2,5.7c-1,2-2.7,3.5-4.7,4.4
		c-13.6-4.8-28.5-4.8-42.1,0c-3.1-1.1-6.4-1.8-9.7-2c-2.8-0.1-5.6-0.1-8.4,0.2c-2.6,0.3-5.2,0.6-7.6,1.1c-2.4,0.4-4.8,0.6-7.2,0.6
		c-2.3,2.3-3.4,4.4-3.2,6.2c0.3,1.9,1,3.7,2.1,5.3c1.2,1.8,2.4,3.6,3.8,5.4c1.4,1.8,2.1,4.1,2.1,6.3c1,2.1,2.4,4,4.3,5.4
		c1.6,1.3,3.3,2.4,5.1,3.3c1.8,0.9,3.5,1.7,5.1,2.4c1.6,0.7,3,1.6,4.3,2.8c9.4,0,17.7-2.1,24.6-6.4c7-4.3,12.9-10.1,17.4-16.9
		c5.1,0.2,9.2,4.3,9.4,9.4c0,2.2-0.5,4.4-1.6,6.3c-1.2,2-2.6,3.8-4.3,5.4c-1.7,1.7-3.7,3.6-5.9,5.4c-2.2,1.9-4.4,4-6.8,6.3
		c-4.2,1.3-8.4,2.4-12.8,3.2c-5.1,1-10.3,1.4-15.5,1.4c-5.2,0-10.4-0.6-15.5-2c-4.8-1.3-9.2-3.8-12.8-7.3c-2.3-3.5-4.9-6.8-7.6-9.9
		c-2.8-3.1-5.3-6.3-7.6-9.5c-2.3-3.2-4.3-6.6-5.8-10.3c-1.6-4-2.4-8.2-2.3-12.4c0-1.2,0.3-2.5,0.8-3.6c0.5-1.2,1-2.6,1.6-4.1
		s1.1-3.2,1.6-5c0.5-2,0.8-4.1,0.8-6.2c1.2-4.8,2.9-9.4,5.1-13.7c2.2-4.5,5-8.7,8.2-12.5c3.1-3.8,6.8-7.1,10.9-9.9
		c4-2.7,8.4-4.7,13.1-5.9c6.8,0,13.5,0.8,20.1,2.5c6.2,1.6,12.1,4,17.5,7.3c5.3,3.1,10,7.1,14,11.8
		C491.5,98.8,494.7,104.1,497,109.8z M478.3,114.6c0-1.4-0.3-2.8-0.8-4.2c-0.5-1.6-1.2-3.1-2.1-4.6c-0.8-1.4-1.8-2.6-3-3.7
		c-0.9-0.9-2.2-1.5-3.5-1.5c-2.3-1.2-4.9-2.5-7.7-4c-2.8-1.5-5.7-2.7-8.7-3.6c-2.8-0.9-5.8-1.2-8.7-1c-3,0.3-5.7,1.6-7.7,3.8
		c-1.1,2.3-2.8,4.3-5,5.8c-2.1,1.4-4.2,2.8-6.2,4.4c-2,1.5-3.8,3.3-5.3,5.2c-1.5,2-2.3,4.7-2.3,8.2c4.7,0,9.6,0,14.8-0.1
		s10.4-0.3,15.7-0.5c5.2-0.3,10.5-0.8,15.7-1.4C468.4,116.7,473.3,115.8,478.3,114.6L478.3,114.6z"/>
	<path class="st1" d="M552.8,83c0,1.2-0.2,2.4-0.7,3.6c-0.4,1.2-0.8,2.4-1.1,3.6c-0.3,1.2-0.4,2.4-0.2,3.6c0.3,1.4,1,2.8,2,3.8
		c1.4,0,2.8-0.6,3.8-1.5c1.2-1,2.5-2.1,3.7-3.4s2.5-2.4,3.7-3.4c1-0.9,2.3-1.5,3.6-1.5c1.2-3.6,2.9-6.2,5.2-7.7
		c2.3-1.5,4.9-2.6,7.6-3.3c2.8-0.7,5.6-1.1,8.4-1.4c2.8-0.3,5.5-1,8-2.2c2.5,0,4.9,0.6,7.1,1.6c2.4,1.1,4.7,2.4,6.9,3.9
		c2.1,1.5,4,3.1,5.9,4.8c1.7,1.7,3.3,3.1,4.6,4.3c1.1,7,1.8,14.1,2,21.1c0.1,6.8,0.1,13.6-0.2,20.3c-0.3,6.7-0.7,13.4-1.1,20.3
		c-0.4,6.8-0.7,13.9-0.7,21.1h9.6c0.8-1,1.9-1.7,3-2.2c0.7-0.2,1.4,0,2,0.3c0.6,0.4,1.2,0.8,1.9,1.2c0.8,0.5,1.8,0.7,2.7,0.6
		c2.5,0,3.9,1,4.4,2.9c0.5,2.2,0.7,4.4,0.7,6.6c-2.2,2.3-5,4-8.1,4.9c-2.9,0.8-5.9,1.2-8.9,1.2c-3,0-6-0.2-8.9-0.7
		c-2.7-0.4-5.4-0.6-8.1-0.6c-1.3-1.2-3.3-1.6-5.9-1.4c-2.6,0.2-5.3,0.5-8.1,0.9c-2.4,0.4-4.8,0.4-7.2,0c-2-0.4-3-1.8-3-4.3
		c0-2.2,0.2-4.5,0.5-6.6c0.4-2,1.7-2.9,4-2.9h19.6c-2.4-7-3.7-14.4-3.6-21.8c0.1-7.3,0.3-14.4,0.5-21.5c0.3-6.8,0.1-13.7-0.4-20.5
		c-0.7-6.8-2.9-13.3-6.5-19.1c-2.5-1.2-5.3-1.8-8.1-1.8c-3-0.1-6.1,0.4-8.9,1.3c-3.1,1-6.2,2.3-9,4c-3,1.7-5.7,3.8-8,6.3
		c-3.8,2.5-7,5.8-9.3,9.7c-2.5,4.1-4.3,8.6-5.5,13.3c-1.3,5-1.9,10.1-1.9,15.2c0,5.1,0.6,10.2,1.8,15.1c-1,1-1.7,2.3-2.1,3.7
		c-0.2,1.2-0.3,2.4-0.3,3.6c0,1.2-0.1,2.4-0.2,3.6c-0.3,1.4-1,2.7-2,3.7c1.6,1.6,3.6,2.8,5.8,3.5c2.2,0.7,4.5,1.3,6.9,1.6
		c2.3,0.4,4.5,0.7,6.7,1c1.8,0.2,3.6,0.8,5.1,1.9c1.3,0.9,2.1,2.4,2.1,4c0.1,1.7-0.7,4.2-2.3,7.4h-14.6c-3.9,0-7.8,0.2-11.7,0.6
		c-4,0.4-8.1,0.7-12.1,0.7c-3.7,0-7.5-0.4-11.1-1.2c-3.3-0.7-6.4-2.4-8.7-4.9c1.1-0.9,1.6-2.2,1.3-3.6c-0.3-1.2-0.6-2.4-0.9-3.6
		c-0.3-1.2-0.3-2.4,0-3.6c0.3-1.2,1.7-2.5,4.1-3.8c1.5,0,3.1,0.2,4.6,0.6c1.8,0.4,3.5,0.8,5.3,1.2c1.8,0.4,3.6,0.5,5.3,0.3
		c1.7-0.1,3.3-0.9,4.4-2.2V87.8c-1.2-1.2-3-1.4-4.5-0.7c-1.8,0.7-3.8,1.6-5.9,2.5c-2.1,1-4.4,1.5-6.8,1.6c-2.4,0.2-4.8-1-7.1-3.5
		c0-1.4,0.3-2.9,0.8-4.3c0.5-1.7,1.2-3.3,2.1-4.8c0.8-1.5,1.8-2.8,3-3.9c1-1,2.3-1.6,3.7-1.6c1.4,1.5,3.2,2.5,5.3,2.7
		c1.9,0.2,3.8,0.1,5.7-0.2c1.9-0.4,3.7-0.8,5.6-1.3c1.7-0.5,3.4-0.6,5.1-0.4c1.7,0.3,3.2,1.1,4.4,2.3C551,77.6,552,79.8,552.8,83z"
		/>
	<path class="st1" d="M699.7,32.4c0,3.4-0.2,6.9-0.8,10.2c-0.5,3.2-1.1,6.3-1.6,9.4c-0.6,3.1-1.1,6.1-1.6,9.3
		c-0.5,3.4-0.8,6.7-0.8,10.1l4.8,4.8c4.7,1.3,9.6,1.6,14.4,0.9c4.8-0.7,9.3-1.4,13.5-2c3.9-0.6,7.8-0.6,11.7-0.1
		c3.6,0.5,6.6,2.6,9,6.2c0,2.5-1.1,5-3,6.7c-1.8,1.8-4.2,2.9-6.8,2.9c-2.8-1.2-5.8-1.9-8.8-2c-3.5-0.1-7.1-0.1-10.6,0.2
		c-3.6,0.3-7.2,0.7-10.7,1.1c-2.9,0.4-5.8,0.6-8.7,0.7c-1.2,4.8-1.8,9.8-2.1,14.7c-0.2,4.9-0.3,9.7-0.3,14.6s-0.1,9.7-0.3,14.5
		c-0.2,4.9-0.9,9.7-2.1,14.4c1.1,2.3,1.8,4.7,2.2,7.2c0.3,2.3,0.6,4.4,0.9,6.3c0.2,1.6,0.8,3.2,1.8,4.5c0.9,1.1,2.5,1.6,5,1.6
		c1.2,2.5,2.3,3.8,3.5,4.1c1.1,0.3,2.3,0.3,3.5,0c1.2-0.3,2.4-0.5,3.6-0.8c1.4-0.2,2.8,0.4,3.8,1.4c3.6-1.1,6.6-3.4,8.7-6.5
		c2.2-3.2,4.3-6.5,6.4-9.8c2.1-3.3,4.6-6.3,7.4-8.9c2.8-2.6,6.7-3.9,11.5-3.9c0,1,0.2,2.1,0.7,3c0.4,1.1,0.9,2.2,1.4,3.2
		c0.7,1.3,1.6,2.5,2.7,3.6c-3.7,2.5-6.9,5.7-9.5,9.4c-2.7,3.8-5.4,7.3-8.2,10.7c-2.5,3.2-5.6,5.9-9,8c-3.3,2-7.3,2.4-12.1,1.2
		c-7,0-13.9-1.3-20.5-3.7c-2.9-1.1-5.6-2.6-8.1-4.5c-2.3-1.7-4.1-3.9-5.5-6.4c0-2.3-0.4-4.5-1.4-6.5c-0.9-1.9-1.8-3.6-2.7-5.1
		c-0.8-1.3-1.4-2.7-1.9-4.1c-0.3-1.4,0.1-2.8,1.2-3.8c1.2-5,1.9-10,2.1-15.2c0.2-5.3,0.3-10.6,0.3-15.7s0.1-10.1,0.3-14.8
		c0.1-4.3,0.8-8.5,2.1-12.5c-2.4,0-4.9-0.2-7.3-0.7c-2.4-0.4-4.8-0.8-7.2-1.1c-2.4-0.3-4.9-0.4-7.3-0.2c-2.6,0.2-5.1,0.9-7.4,2
		c-2.5,0-3.9-1-4.3-2.9c-0.4-2.2-0.6-4.4-0.5-6.6c2-2.2,4.6-3.9,7.4-4.9c2.5-0.8,5.1-1.2,7.7-1.2c2.9,0,5.8,0.2,8.7,0.5
		c3.4,0.4,6.8,0.6,10.1,0.5c1.3-3.8,1.7-7.8,0.9-11.7c-0.7-4.1-1.4-8.4-2-12.6c-0.6-4.2-0.6-8.4-0.1-12.6c0.5-4.2,2.6-8,6.2-11.7
		c1,0,2,0.2,2.8,0.8c0.7,0.5,1.4,1,2,1.6c0.6,0.6,1.3,1.2,2,1.6C697.8,32.2,698.7,32.5,699.7,32.4z"/>
	<path class="st1" d="M820.3,78.2c2.2,3.1,3.5,6.7,3.9,10.5c0.3,3.6,0.3,7.3,0,10.9c-0.3,3.8-0.6,7.7-0.9,11.9
		c-0.3,4.4,0.2,8.8,1.3,13c0,7-0.7,13.9-2.2,20.7c-1.5,6.8-2.2,13.7-2.2,20.7c2.4,1.2,5,1.9,7.6,2c2.8,0.1,5.6,0.1,8.4-0.2
		c2.8-0.3,5.6-0.7,8.4-1.1c2.6-0.4,5.2-0.6,7.8-0.7h9.2c4.5,4.8,4.5,9.5,0,14.2v4.4h-83.1c-2.5,0-5-0.8-7.1-2.2
		c-2-1.4-4.4-2.1-6.9-2.2c-1.2-1.2-1.6-2.3-1.2-3.5c0.4-1.3,1.1-2.5,1.8-3.6c0.9-1.2,1.8-2.4,2.6-3.6c0.8-1,1.3-2.2,1.3-3.5
		c0-1.2,0.3-1.8,0.8-2c0.7-0.1,1.4,0,2.1,0.2c0.9,0.3,1.9,0.6,3,1.1c1.1,0.4,2.3,0.6,3.5,0.6c2.3,1.2,4.9,1.9,7.5,2
		c2.7,0.1,5.3,0.1,8-0.2c2.6-0.3,5-0.7,7.1-1.1c1.6-0.4,3.3-0.6,4.9-0.7c-1.2-5.9-1.8-11.9-1.8-17.9c-0.1-6.2,0-12.6,0.2-19
		c0.2-6.4,0.6-12.8,1-19c0.4-6.2,0.7-12.3,0.7-18.1c-4.7-2.2-10.2-2.5-16.7-1.1c-6.8,1.6-13.6,3.5-20.2,5.9c-2-0.8-3.6-2.3-4.6-4.3
		c-0.7-1.6-1-3.4-0.7-5.1c0.3-1.8,1-3.5,2-5c0.9-1.5,2-2.9,3.3-4.1L820.3,78.2z M829.4,41.4c1,0.9,1.7,2.1,1.9,3.5
		c0.1,1.2-0.2,2.3-0.8,3.4c-0.7,1.2-1.5,2.4-2.5,3.4c-1.1,1.2-2.2,2.3-3.4,3.5c-1.2,1.2-2.6,2.1-4.1,2.6c-1.6,0.6-3.3,0.9-5,0.9
		c-1.7,0-3.5-0.3-5.1-0.9c-1.6-0.5-3.1-1.4-4.3-2.6c-1.2-1.1-2.5-2.1-3.9-2.8c-1.4-0.7-2.7-1.5-3.9-2.4c-1.1-0.8-1.9-1.9-2.4-3.2
		c-0.4-1.2-0.1-3,1.1-5.3c1.1-3.5,3.4-6.5,6.4-8.5c2.9-2.1,6.3-3.4,9.8-3.7c3.4-0.3,6.9,0.6,9.8,2.4
		C826.1,33.5,828.2,36.7,829.4,41.4z"/>
	<path class="st1" d="M916.6,83c0,1.2-0.2,2.4-0.7,3.6c-0.4,1.2-0.8,2.4-1.1,3.6c-0.3,1.2-0.4,2.4-0.2,3.6c0.3,1.4,1,2.8,2,3.8
		c1.4,0,2.8-0.6,3.8-1.5c1.2-1,2.5-2.1,3.7-3.4s2.5-2.4,3.7-3.4c1-0.9,2.3-1.5,3.6-1.5c1.2-3.6,2.9-6.2,5.2-7.7
		c2.3-1.5,4.9-2.6,7.6-3.3c2.8-0.7,5.6-1.1,8.4-1.4c2.8-0.3,5.5-1,8-2.2c2.5,0,4.9,0.6,7.1,1.6c2.4,1.1,4.7,2.4,6.9,3.9
		c2.1,1.5,4,3.1,5.9,4.8c1.7,1.7,3.3,3.1,4.6,4.3c1.1,7,1.7,14.1,1.9,21.2c0.1,6.8,0.1,13.6-0.2,20.3c-0.3,6.7-0.6,13.4-1.1,20.3
		c-0.4,6.8-0.7,13.9-0.7,21.1h9.6c0.8-1,1.9-1.7,3-2.2c0.7-0.2,1.4,0,2,0.3c0.6,0.4,1.2,0.8,1.8,1.2c0.8,0.5,1.8,0.7,2.7,0.6
		c2.5,0,3.9,1,4.4,2.9c0.5,2.2,0.7,4.4,0.7,6.6c-2.2,2.3-5,4-8.1,4.9c-2.9,0.8-5.9,1.2-8.9,1.2c-3,0-6-0.2-8.9-0.7
		c-2.7-0.4-5.4-0.6-8.1-0.6c-1.3-1.2-3.3-1.6-5.9-1.4s-5.3,0.5-8.1,0.9c-2.4,0.4-4.8,0.4-7.2,0c-2-0.4-3-1.8-3-4.3
		c0-2.2,0.2-4.5,0.5-6.6c0.4-2,1.7-2.9,4-2.9h19.6c-2.4-7-3.6-14.4-3.6-21.8c0.1-7.3,0.3-14.4,0.5-21.5c0.3-6.8,0.1-13.7-0.4-20.5
		c-0.6-6.8-2.8-13.3-6.3-19.1c-2.5-1.2-5.3-1.8-8-1.8c-3-0.1-6.1,0.4-8.9,1.3c-3.1,1-6.2,2.3-9,4c-3,1.7-5.7,3.8-8,6.3
		c-3.8,2.5-7,5.8-9.3,9.7c-2.5,4.1-4.3,8.6-5.5,13.3c-1.3,5-1.9,10.1-1.8,15.3c0,5.1,0.6,10.2,1.7,15.1c-1,1-1.7,2.3-2.1,3.7
		c-0.2,1.2-0.3,2.4-0.3,3.6c0,1.2-0.1,2.4-0.2,3.6c-0.3,1.4-1,2.7-2,3.7c1.6,1.6,3.6,2.8,5.8,3.5c2.2,0.7,4.5,1.3,6.9,1.6
		c2.3,0.4,4.5,0.7,6.7,1c1.8,0.2,3.6,0.8,5.1,1.9c1.3,0.9,2.1,2.4,2.1,4c0.1,1.7-0.7,4.2-2.3,7.4h-14.6c-3.9,0-7.8,0.2-11.7,0.6
		c-4,0.4-8.1,0.7-12.1,0.7c-3.7,0-7.5-0.4-11.1-1.2c-3.3-0.7-6.4-2.4-8.7-4.9c1.1-0.9,1.6-2.2,1.3-3.6c-0.3-1.2-0.6-2.4-0.9-3.6
		c-0.3-1.2-0.3-2.4,0-3.6c0.3-1.2,1.7-2.5,4.1-3.8c1.5,0,3.1,0.2,4.6,0.6c1.8,0.4,3.5,0.8,5.3,1.2c1.8,0.4,3.6,0.5,5.3,0.3
		c1.7-0.1,3.3-0.9,4.4-2.2V87.8c-1.2-1.2-3-1.4-4.5-0.7c-1.8,0.7-3.8,1.6-5.9,2.5c-2.1,1-4.4,1.5-6.8,1.6c-2.4,0.2-4.8-1-7.1-3.5
		c0-1.4,0.3-2.9,0.8-4.3c0.5-1.7,1.2-3.3,2.1-4.8c0.8-1.4,1.8-2.8,3-3.9c1-1,2.3-1.6,3.7-1.6c1.4,1.5,3.2,2.5,5.2,2.7
		c1.9,0.2,3.8,0.1,5.7-0.2c1.9-0.4,3.7-0.8,5.6-1.3c1.7-0.5,3.4-0.6,5.1-0.4c1.7,0.3,3.2,1.1,4.4,2.3
		C914.9,77.6,915.9,79.8,916.6,83z"/>
</g>
<rect x="-24" y="197.5" class="st0" width="1086" height="296"/>
<g>
	<path class="st1" d="M184.7,233c0-1,0-2.3,0.1-3.8c0.1-1.5,0.4-3,1-4.4c0.6-1.3,1.4-2.5,2.5-3.5c1.4-1,3.2-1.6,4.9-1.4
		c0.9,1.8,1.3,3.9,1.1,5.9c-0.3,1.7-0.7,3.4-1.2,5c-0.5,1.6-0.9,3.2-1.2,4.9c-0.2,2,0.2,3.9,1.3,5.6c-2.1,2-3.3,4.7-3.2,7.6
		c0.1,2.9,0.2,5.7,0.4,8.3c0.2,2.3,0.1,4.5-0.3,6.8c-0.4,1.9-2.3,2.8-5.4,2.8c-0.9-0.8-1.5-2-1.7-3.2c-0.2-1.1-0.1-2.2,0.2-3.3
		c0.3-1.1,0.6-2.1,1-3.2c0.4-1.1,0.5-2.2,0.5-3.3c-0.1-2.3-0.5-4.6-1.4-6.8c-1-2.6-2.3-5-3.8-7.3c-1.6-2.4-3.5-4.6-5.5-6.5
		c-1.8-1.8-3.9-3.4-6.1-4.7c-3-2.1-6.5-3.4-10.1-3.6c-3.5-0.2-7.1,0.2-10.5,1.3c-3.4,1.1-6.7,2.6-9.7,4.6c-2.8,1.8-5.4,3.8-7.8,6
		c-3.3,3.3-6.2,7-8.7,11c-2.7,4.2-4.9,8.7-6.8,13.4c-1.9,4.9-3.4,9.9-4.4,15.1c-1,5.2-1.5,10.4-1.5,15.7c2.2,1.2,3.4,2.3,3.7,3.4
		c0.3,1.2,0.3,2.4,0.1,3.6c-0.2,1.3-0.5,2.8-0.8,4.4c-0.2,2,0.2,4,1.3,5.7c2.6,2.6,4.8,5.6,6.5,8.9c2.1,3.9,4.2,8,6.2,12.2
		c0.1,2.2,1.1,4.2,2.7,5.7c1.5,1.6,3.6,2.6,5.8,2.6c4.2,4.4,8.4,6.7,12.6,7.1c4.4,0.3,8.8-0.6,12.7-2.7c3.2-1,6.4-2.4,9.4-3.9
		c3-1.6,5.9-3.4,8.6-5.6c2.7-2.1,5-4.5,7.1-7.2c2-2.7,3.6-5.6,4.6-8.8c-1-1.9-1.6-4-1.9-6.2c-0.2-2-0.3-3.9-0.3-5.9
		c0-1.8-0.1-3.5-0.2-5c-0.1-1.4-0.7-2.8-1.8-3.8c-4.2,0-8.4-0.2-12.6-0.5c-4.5-0.4-8.9-1.7-12.9-3.8c0-2,0.7-3.2,2.1-3.5
		c1.8-0.3,3.6-0.3,5.3-0.1c2.2,0.2,4.5,0.4,7,0.6c2.4,0.2,4.9-0.3,7-1.4H210c0.6,0.9,1.1,1.6,1.5,2.2c0.3,0.5,0.4,1,0.3,1.5
		c-0.1,0.4-0.7,0.6-1.9,0.6c-1,1.2-2.3,1.9-3.8,2c-1.5,0.1-3.1,0.2-4.6,0.2c-1.5,0-3.1,0.1-4.6,0.3c-1.4,0.2-2.8,0.8-3.8,1.9
		c0,4.8,0.2,9.6,0.8,14.3c0.5,4.4,1.1,8.5,1.9,12.5s1.6,7.9,2.6,11.8c1,3.8,2.1,7.9,3.3,12.1c-1,0.8-1.9,1.8-2.6,2.9
		c-0.5,0.8-1.1,1.5-1.7,2.2c-0.5,0.5-1.1,0.7-1.8,0.6c-0.6-0.1-1.4-0.7-2.4-1.9c-1.1-0.9-1.9-2.3-2-3.7c-0.1-1.5-0.2-3-0.2-4.6
		c0-1.6-0.1-3.1-0.3-4.7c-0.2-1.4-0.8-2.8-1.9-3.8c-1.9,3-4.3,5.8-7,8.1c-2.5,2.1-5.3,4-8.2,5.7c-2.9,1.6-5.8,3-8.9,4.1
		c-3.1,1.2-6.3,2.3-9.5,3.3c-4.2-1-8.2-2.1-12-3.3c-3.6-1.1-7-2.5-10.3-4.1c-3.1-1.6-6-3.5-8.7-5.7c-2.8-2.3-5.2-5-7.1-8.1
		c-2.2-4.2-4.2-7.7-6-10.6c-1.9-3.2-2.8-6.9-2.7-10.6c-2.1-2.2-3.7-4.9-4.7-7.7c-1.1-3-1.8-6.1-2-9.3c-0.2-3.1-0.1-6.2,0.3-9.3
		c0.3-2.6,1.1-5.2,2.4-7.5c0-10.6,2.1-21,6.2-30.7c4-9.7,10.6-18.2,19.1-24.4c3.2-1,6.6-2.2,10.1-3.6c3.5-1.4,7.2-2.3,10.9-2.8
		c3.6-0.5,7.3-0.4,10.9,0.4c3.9,1,7.4,3.1,10.1,6c1.2,0.1,2.3,0.6,3.2,1.4c1.1,1,2.2,2,3.3,3.1c1,1,2.1,2,3.3,2.9
		C182.4,232.5,183.5,232.9,184.7,233z"/>
	<path class="st1" d="M260.6,251.1v78c-0.1,2,0.4,4,1.6,5.7c1.1,1.3,2.4,2.3,3.9,2.9c1.5,0.7,3.1,1,4.8,1.1c1.7,0.1,3.1,0.1,4.3,0.1
		c5.5,0.2,10.9-1,15.8-3.3c4.4-2.2,8.3-5.2,11.7-8.8c3.4-3.8,6.4-7.9,8.9-12.4c2.6-4.7,5.2-9.5,7.6-14.4v-39c-1.9-2-4.1-3.7-6.5-4.9
		c-1.8-0.8-3.7-1.2-5.7-1.2c-1.9,0-3.8,0.2-5.7,0.7c-2.1,0.5-4.3,0.7-6.5,0.6v-9.8c2.5-1.3,5.3-2.1,8.1-2.2c2.9-0.1,5.9-0.2,8.9-0.2
		c3.1,0,6-0.1,8.9-0.3c2.8-0.2,5.6-1,8.1-2.3c1.3,2.5,2.1,5.3,2.2,8.2c0.1,3,0.2,6,0.2,9c0,3,0.1,6,0.3,8.9c0.2,2.8,1,5.6,2.3,8.1
		c-2.6,7.9-4,16.1-4.4,24.4c-0.4,8.9-0.6,17-0.6,24.4c0,1.2-0.2,2.4-0.7,3.6c-0.4,1.2-0.8,2.5-1.1,3.7c-0.3,1.2-0.4,2.5-0.2,3.7
		c0.2,1.4,0.9,2.7,2,3.6c2.3,1.2,4.9,1.4,7.3,0.7c2.4-0.7,4.7-1.4,6.8-2c1.9-0.6,4-0.6,5.9-0.1c1.8,0.5,3.3,2.6,4.5,6.2
		c0,2.6-1.1,5-2.9,6.8c-1.7,1.9-4.1,3-6.6,3c-1.8,0.1-3.6,0.3-5.3,0.6c-2.5,0.5-5,0.7-7.5,0.7c-2.9,0-5.7-0.4-8.5-1.2
		c-3.1-0.9-5.9-2.6-8.1-4.9V334c-3.6,3.6-7.6,7-11.8,9.9c-4.1,2.9-8.5,5.3-13.2,7.2c-4.5,1.8-9.2,3-14.1,3.5
		c-4.9,0.5-9.9,0.1-14.6-1.2c-2.2-1-4.2-2.5-5.8-4.4c-1.3-1.6-2.5-3.4-3.4-5.3c-0.9-1.8-1.7-3.6-2.5-5.3c-0.7-1.6-1.7-3.1-2.9-4.4
		v-63.3c0-1.3,0.2-2.6,0.6-3.8c0.4-1.2,0.8-2.4,1.1-3.6c0.3-1.2,0.4-2.4,0.2-3.6c-0.2-1.4-0.9-2.7-2-3.6c-2.2-1.3-4.8-1.6-7.3-0.9
		c-2.4,0.7-4.7,1.4-6.8,2c-1.9,0.6-4,0.6-5.9,0.1c-1.8-0.5-3.3-2.6-4.5-6.2c2.5-3.6,5.2-6,8.1-7c2.9-1,5.9-1.5,8.9-1.5
		c3,0,6,0.1,9,0.3c2.8,0.3,5.7-0.3,8.2-1.6L260.6,251.1z"/>
	<path class="st1" d="M418.4,246.7c2.2,3.1,3.5,6.7,3.9,10.5c0.3,3.6,0.3,7.3,0,10.9c-0.3,3.8-0.6,7.7-0.9,11.9
		c-0.3,4.4,0.2,8.8,1.3,13c0,7-0.7,13.9-2.2,20.7c-1.5,6.8-2.2,13.7-2.2,20.7c2.4,1.2,5,1.9,7.6,2c2.8,0.1,5.6,0.1,8.4-0.2
		c2.8-0.3,5.6-0.7,8.4-1.1c2.6-0.4,5.2-0.6,7.9-0.7h9.2c4.5,4.8,4.5,9.5,0,14.2v4.4h-83.1c-2.5,0-5-0.8-7.1-2.2
		c-2-1.4-4.4-2.1-6.9-2.2c-1.2-1.2-1.6-2.3-1.2-3.5c0.4-1.3,1.1-2.5,1.9-3.6c0.9-1.2,1.7-2.4,2.6-3.6c0.8-1,1.3-2.2,1.3-3.5
		c0-1.2,0.3-1.8,0.8-2c0.7-0.1,1.4,0,2.1,0.2c0.9,0.3,1.9,0.6,3,1.1c1.1,0.4,2.3,0.6,3.5,0.6c2.3,1.2,4.9,1.9,7.5,2
		c2.7,0.1,5.3,0.1,8-0.2c2.6-0.3,5-0.7,7.1-1.1c1.6-0.4,3.3-0.6,4.9-0.7c-1.2-5.9-1.8-11.9-1.9-17.9c-0.1-6.2,0-12.6,0.2-19
		c0.2-6.4,0.6-12.8,1-19c0.4-6.2,0.7-12.3,0.7-18.1c-4.7-2.2-10.2-2.5-16.7-1.1c-6.8,1.6-13.6,3.5-20.2,5.9c-2-0.8-3.6-2.3-4.6-4.3
		c-0.7-1.6-1-3.4-0.7-5.1c0.3-1.8,1-3.5,2-5c0.9-1.5,2-2.9,3.3-4.1L418.4,246.7z M427.5,209.9c1,0.9,1.7,2.1,1.9,3.5
		c0.1,1.2-0.2,2.3-0.8,3.4c-0.7,1.2-1.5,2.4-2.5,3.4c-1.1,1.2-2.2,2.3-3.4,3.5c-1.2,1.2-2.6,2.1-4.1,2.6c-1.6,0.6-3.3,0.9-5,0.9
		c-1.7,0-3.5-0.3-5.1-0.9c-1.6-0.5-3.1-1.4-4.3-2.6c-1.2-1.1-2.5-2.1-3.9-2.8c-1.4-0.7-2.7-1.5-3.9-2.4c-1.1-0.8-1.9-1.9-2.4-3.2
		c-0.4-1.2-0.1-3,1.1-5.3c1.1-3.5,3.4-6.5,6.4-8.5c2.9-2.1,6.3-3.4,9.8-3.7c3.4-0.3,6.9,0.6,9.8,2.4
		C424.2,202,426.4,205.2,427.5,209.9L427.5,209.9z"/>
	<path class="st1" d="M512.1,206.4c0,4.7-0.2,9.6-0.6,14.7c-0.4,5.1-0.8,10.2-1.1,15.2c-0.3,4.9-0.4,9.7-0.2,14.3
		c0.1,4.2,0.8,8.3,2,12.3c2.5-2.5,5.1-4.8,7.8-7c5.8-4.6,12.3-8.1,19.4-10.4c3.4-1.1,6.9-1.6,10.5-1.6c6.6-0.1,13,2.2,18.1,6.4
		c5.7,5,10.6,10.7,14.6,17.1c2.4,11.4,3.4,23,3,34.6c-0.3,10.8-2.9,21.3-7.6,31c-4.7,7-9.5,11.8-14.6,14.6
		c-5.6,2.9-11.8,4.3-18.1,4.1c-0.9-1-2.1-1.8-3.5-2.1c-1.2-0.2-2.4-0.3-3.6-0.3c-1.2,0-2.4-0.1-3.6-0.3c-1.4-0.3-2.7-1.1-3.7-2.1
		c-0.8,1.1-2.2,1.5-3.5,1.2c-1.3-0.5-2.5-1.3-3.5-2.3c-1.3-1.3-2.4-2.7-3.5-4.1c-1.1-1.5-2.2-2.9-3.5-4.1c0.1-0.9-0.2-1.9-0.8-2.6
		c-0.5-0.5-1-1-1.6-1.3c-0.7-0.4-1.6-0.7-2.4-0.6c-1.6,0-2.6,0.5-3,1.6c-0.5,1.3-0.7,2.6-0.6,4c0,1.6,0.1,3.2,0.2,4.8
		c0.2,1.4,0,2.7-0.5,4c-0.6,1.1-1.8,1.8-3,1.8c-1.5,0.1-3.8-0.7-6.9-2.3v-32.7c1.2-2.7,1.7-5.6,1.3-8.5c-0.3-3.3-0.7-6.8-1.3-10.3
		c-0.6-3.5-1-6.9-1.3-10.3c-0.4-2.9,0.1-5.8,1.3-8.5c-1.2-4.8-1.6-9.7-1.3-14.7c0.3-5.2,0.7-10.5,1.3-15.7c0.6-5.2,1-10.5,1.3-15.7
		c0.3-5-0.1-10-1.3-14.8c-2-2.2-4.7-3.4-7.6-3.5c-2.5,0-5.1,0.1-7.6,0.4c-2,0.3-4,0.2-5.9-0.3c-1.6-0.5-2.4-2.5-2.4-6
		c-1.2-2.3-1.5-3.7-1.1-4s1.2-0.4,2.4-0.1c1.3,0.3,2.7,0.6,4,0.8c1.5,0.2,3-0.3,4-1.4c2.6,0,5.2-0.2,7.7-0.5
		c2.7-0.4,5.4-0.5,8.2-0.6c2.4,0,4.9,0.4,7.2,1.2C509.3,202.6,511.1,204.2,512.1,206.4z M512.1,323.7h-4.6l4.6,4.6V323.7z
		 M563.8,267.4c-2.3-4.7-5.8-7.4-10.5-8.2c-5.8-0.9-11.6-1.3-17.4-1.2c-2.7,1.3-5.3,2.8-7.9,4.5c-2.7,1.8-5.3,3.9-7.6,6.2
		c-2.3,2.3-4.3,5-5.9,7.9c-1.6,2.9-2.4,6.2-2.4,9.6c-2.3,4.7-3.1,8.8-2.4,12.5c0.8,3.8,2.2,7.5,4.1,10.9c2,3.6,4.3,7.2,6.9,10.9
		c2.6,3.8,4.5,8.1,5.6,12.5c2.2,0,4.3,0.2,6.4,0.8c2,0.5,4,1,6,1.5s4.3,1,6.9,1.5c3,0.5,6,0.8,9,0.8c1.3-1.3,2.7-2.5,4.2-3.6
		c1.6-1.2,3.1-2.6,4.6-4c1.5-1.5,2.7-3.1,3.7-4.9c1-1.9,1.6-4,1.5-6.2c1.3-3.9,2.3-7.9,3.2-12c0.9-4.5,1.4-9.1,1.4-13.7
		c0-4.7-0.7-9.3-2.1-13.7C569.7,274.9,567.2,270.8,563.8,267.4z"/>
	<path class="st1" d="M698.1,278.3c0,2.4,0.2,4.8,0.5,7.2c0.3,2.2,0.5,4.3,0.5,6.5c0,2-0.4,3.9-1.2,5.7c-1,2-2.7,3.5-4.7,4.4
		c-13.6-4.8-28.5-4.8-42.1,0c-3.1-1.1-6.4-1.8-9.7-2c-2.8-0.1-5.6-0.1-8.4,0.2c-2.6,0.3-5.2,0.6-7.6,1.1c-2.4,0.4-4.8,0.6-7.2,0.6
		c-2.3,2.3-3.4,4.4-3.2,6.2c0.3,1.9,1,3.8,2.1,5.3c1.2,1.8,2.4,3.6,3.8,5.5c1.4,1.8,2.1,4.1,2.1,6.3c1,2.1,2.4,4,4.3,5.5
		c1.6,1.3,3.3,2.4,5.1,3.3c1.7,0.9,3.4,1.7,5.1,2.4c1.6,0.7,3,1.6,4.3,2.8c9.4,0,17.7-2.1,24.6-6.4c7-4.3,12.9-10.1,17.4-16.9
		c5.1,0.2,9.2,4.3,9.4,9.4c0,2.2-0.5,4.4-1.6,6.3c-1.2,2-2.6,3.8-4.3,5.5c-1.7,1.7-3.7,3.6-5.9,5.5c-2.2,1.9-4.4,4-6.8,6.4
		c-4.2,1.3-8.4,2.4-12.8,3.1c-5.1,1-10.3,1.4-15.5,1.4c-5.2,0-10.4-0.7-15.5-2.1c-4.8-1.3-9.2-3.8-12.8-7.3
		c-2.3-3.5-4.9-6.8-7.6-9.9c-2.8-3.1-5.3-6.3-7.6-9.5c-2.3-3.2-4.3-6.6-5.8-10.2c-1.6-4-2.3-8.2-2.3-12.4c0-1.2,0.3-2.5,0.8-3.6
		c0.5-1.2,1-2.6,1.6-4.1s1.1-3.2,1.6-5c0.5-2,0.8-4.1,0.8-6.2c1.2-4.8,2.9-9.4,5.1-13.7c2.2-4.5,5-8.7,8.2-12.5
		c3.1-3.8,6.8-7.1,10.9-9.9c4-2.7,8.4-4.7,13-5.9c6.8,0,13.5,0.8,20,2.5c6.2,1.6,12.1,4,17.5,7.3c5.3,3.1,10,7.1,14,11.8
		C692.6,267.3,695.8,272.6,698.1,278.3z M679.3,283.1c0-1.4-0.3-2.8-0.8-4.1c-0.5-1.6-1.2-3.1-2.1-4.6c-0.8-1.4-1.9-2.6-3.1-3.7
		c-0.9-0.9-2.2-1.5-3.5-1.5c-2.3-1.2-4.9-2.5-7.7-4c-2.8-1.5-5.7-2.7-8.7-3.6c-2.8-0.9-5.8-1.2-8.7-1c-3,0.3-5.7,1.6-7.7,3.8
		c-1.1,2.3-2.8,4.3-4.9,5.8c-2.1,1.4-4.2,2.8-6.2,4.4c-2,1.5-3.8,3.3-5.3,5.2c-1.5,2-2.3,4.7-2.3,8.2c4.7,0,9.6,0,14.8-0.1
		c5.2-0.1,10.4-0.3,15.7-0.5c5.2-0.3,10.5-0.8,15.7-1.4C669.5,285.2,674.5,284.3,679.3,283.1z"/>
	<path class="st1" d="M763.3,265c3.6-3.5,7.3-6.9,11-10.3c3.5-3.2,7.5-6,11.8-8.2c4.2-2.1,8.8-3.4,13.5-3.7c4.9-0.4,10.3,0.6,16.2,3
		c1.3,0.1,2.6,0.6,3.5,1.5c1.3,1.2,2.5,2.4,3.6,3.8c1.2,1.5,2.4,3.1,3.6,4.8c1,1.5,2.2,2.9,3.5,4.3v19.2c-2.5,2.3-4.8,3.7-7.1,4
		c-2.3,0.4-4.7,0.6-7.1,0.5c-2.5-2.3-4.7-4.9-6.6-7.6c-2-2.8-3-6.5-3-11.3c0.1-1.3,0.9-2.4,2.1-2.8c1.4-0.7,2.7-1.4,3.9-2
		s1.9-1.2,2.1-2c0.2-0.8-1-1.7-3.3-2.8c-2.2-1.1-4.7-1.5-7.2-1.1c-2.5,0.5-4.9,1.5-7.1,2.9c-2.6,1.7-5,3.6-7.2,5.7
		c-2.4,2.3-4.8,4.5-7.1,6.9c-1.2,2.5-3,4.8-5.1,6.5c-2.3,1.9-4.6,3.9-7,6c-2.4,2.1-4.7,4.4-6.9,6.9c-2.3,2.7-4,5.8-5,9.2
		c4.9,4.8,7.6,9.6,8,14.4c0.3,4.9-0.8,9.8-3.2,14.2c0,2.2,0.2,4.5,0.7,6.6c0.4,2,1.9,2.9,4.4,2.9c2.1,1.1,4.6,1.6,7,1.4
		c2.3-0.2,4.5-0.5,6.5-0.8c1.9-0.3,3.8-0.3,5.7,0.1c1.8,0.4,3.3,1.7,4.6,4c0,1,0.2,2,0.8,2.8c0.5,0.7,1,1.4,1.6,2
		c0.6,0.6,1.1,1.2,1.6,1.9c0.5,0.8,0.8,1.8,0.8,2.7c-2.3,1.1-4.8,1.8-7.3,2.1c-2.4,0.2-4.8,0.3-7.2,0.3s-4.8,0.1-7.1,0.3
		c-2.4,0.2-4.8,0.9-7,2.1c-2.5,0-5-0.4-7.3-1.3c-2.4-0.9-4.8-1.6-7.2-2.2c-2.4-0.6-4.8-0.7-7.2-0.4c-2.7,0.5-5.2,1.8-7.1,3.9
		c0.1-1-0.2-1.9-0.8-2.7c-0.4-0.6-1-1.1-1.6-1.4c-0.7-0.4-1.6-0.7-2.4-0.7c-2.3,2.5-4.7,3.9-7.1,4.3c-2.4,0.4-4.9,0.5-7.3,0.5
		c-1.2-1.2-2.3-2.4-3.4-3.6c-1.1-1.2-1.9-2.5-2.5-4c-0.6-1.6-0.8-3.2-0.7-4.9c0.3-2.2,1-4.4,2-6.4h33.3v-76.3
		c-1.3-1.5-3.2-2.4-5.1-2.6c-1.9-0.1-3.8,0-5.7,0.4c-2,0.4-4,1-5.9,1.6c-1.9,0.6-3.9,1.1-5.9,1.3c-1.9,0.2-3.9-0.1-5.7-0.9
		c-2.1-1.1-3.9-2.7-5.1-4.7c0.1-2.5,1.2-4.9,3-6.5c1.7-1.9,4.1-3,6.6-3c4.7,0,9.4-0.2,14.2-0.6c5-0.4,9.9-1.8,14.4-4
		c2.2,1,3.8,2.8,4.7,5c0.8,2.2,1.4,4.5,1.6,6.9c0.3,2.4,0.6,4.7,0.9,6.9C761.3,261.9,762,263.6,763.3,265z"/>
	<path class="st1" d="M883.4,200.9c0,3.4-0.2,6.9-0.8,10.2c-0.5,3.2-1,6.3-1.6,9.4c-0.6,3-1.1,6.1-1.6,9.3
		c-0.5,3.4-0.8,6.7-0.8,10.1l4.8,4.8c4.7,1.3,9.6,1.6,14.4,0.9c4.8-0.7,9.3-1.4,13.5-2c3.9-0.6,7.8-0.6,11.7-0.1
		c3.6,0.5,6.6,2.6,9,6.2c0,2.5-1.1,5-3,6.6c-1.8,1.8-4.2,2.9-6.8,2.9c-2.8-1.2-5.8-1.9-8.8-2c-3.5-0.1-7.1-0.1-10.6,0.2
		c-3.6,0.3-7.2,0.7-10.7,1.1c-2.9,0.4-5.8,0.6-8.7,0.6c-1.1,4.8-1.8,9.8-2.1,14.7c-0.2,4.9-0.3,9.7-0.3,14.6c0,4.9-0.1,9.7-0.3,14.5
		c-0.2,4.9-0.9,9.7-2.1,14.4c1.1,2.3,1.8,4.7,2.2,7.2c0.3,2.3,0.6,4.4,0.9,6.3c0.2,1.6,0.8,3.1,1.7,4.5c0.9,1.1,2.5,1.6,5,1.6
		c1.2,2.5,2.3,3.8,3.5,4.1c1.1,0.3,2.3,0.3,3.5,0c1.2-0.3,2.4-0.5,3.6-0.8c1.4-0.2,2.8,0.4,3.8,1.4c3.6-1.1,6.6-3.4,8.7-6.5
		c2.2-3.2,4.3-6.5,6.4-9.8c2.1-3.3,4.6-6.3,7.4-8.9c2.8-2.6,6.6-3.9,11.4-3.9c0,1.1,0.2,2.1,0.7,3c0.4,1.1,0.9,2.2,1.4,3.2
		c0.7,1.3,1.6,2.5,2.7,3.6c-3.7,2.5-6.9,5.7-9.5,9.4c-2.7,3.8-5.4,7.3-8.2,10.7c-2.5,3.2-5.6,5.9-9,8c-3.3,2-7.3,2.4-12.1,1.2
		c-7,0-13.9-1.3-20.5-3.7c-2.9-1.1-5.6-2.6-8.1-4.5c-2.3-1.7-4.1-3.9-5.5-6.4c0-2.3-0.4-4.5-1.4-6.5c-0.9-1.9-1.8-3.6-2.7-5.1
		c-0.8-1.3-1.4-2.7-1.9-4.1c-0.3-1.4,0.1-2.8,1.2-3.8c1.2-5,1.9-10,2.1-15.1c0.2-5.3,0.3-10.6,0.3-15.7s0.1-10.1,0.3-14.8
		c0.1-4.3,0.8-8.5,2.1-12.5c-2.4,0-4.9-0.2-7.3-0.7c-2.4-0.4-4.8-0.8-7.2-1.1c-2.4-0.3-4.9-0.4-7.3-0.2c-2.6,0.2-5.1,0.9-7.4,2
		c-2.5,0-3.9-1-4.3-2.9c-0.4-2.2-0.6-4.4-0.5-6.6c2-2.2,4.6-3.9,7.4-4.9c2.5-0.8,5.1-1.2,7.7-1.2c2.9,0,5.8,0.2,8.7,0.5
		c3.4,0.4,6.8,0.6,10.1,0.6c1.3-3.7,1.6-7.8,0.9-11.7c-0.7-4.1-1.4-8.4-2-12.6c-0.6-4.2-0.6-8.4-0.1-12.6c0.5-4.1,2.6-8,6.2-11.7
		c1,0,2,0.2,2.8,0.8c0.7,0.5,1.4,1,2,1.6c0.6,0.6,1.3,1.2,2,1.6C881.4,200.7,882.4,201,883.4,200.9z"/>
</g>
</svg>
