<svg xmlns="http://www.w3.org/2000/svg" height="512pt" version="1.1" viewBox="-33 0 512 512" width="512pt">
<g id="surface1">
<path d="M 237.316406 0 C 123.582031 0 30.894531 91.835938 29.53125 205.253906 L 4.796875 277.40625 C -2 297.226562 -1.554688 314.671875 6.015625 325.273438 C 10.554688 331.625 17.558594 335.265625 25.238281 335.265625 L 29.519531 335.265625 L 29.519531 360.433594 C 29.519531 390.851562 54.265625 415.597656 84.683594 415.597656 C 98.5625 415.597656 109.851562 426.890625 109.851562 440.765625 L 109.851562 456.832031 C 109.851562 487.25 134.597656 512 165.019531 512 L 277.484375 512 C 307.902344 512 332.652344 487.25 332.652344 456.832031 L 332.652344 392.449219 C 364.511719 375.984375 391.574219 351.578125 411.324219 321.40625 C 433.433594 287.621094 445.117188 248.339844 445.117188 207.796875 C 445.117188 93.21875 351.898438 0 237.316406 0 Z M 237.316406 0 " style=" stroke:none;fill-rule:nonzero;fill:rgb(73.333333%,36.470588%,29.803922%);fill-opacity:1;" />
<path d="M 237.316406 0 C 232.355469 0 227.433594 0.183594 222.558594 0.527344 L 222.558594 512 L 277.484375 512 C 307.902344 512 332.648438 487.253906 332.648438 456.832031 L 332.648438 392.449219 C 364.511719 375.984375 391.574219 351.582031 411.320312 321.40625 C 433.429688 287.621094 445.117188 248.339844 445.117188 207.800781 C 445.117188 93.21875 351.898438 0 237.316406 0 Z M 237.316406 0 " style=" stroke:none;fill-rule:nonzero;fill:rgb(64.313725%,30.980392%,24.313725%);fill-opacity:1;" />
<path d="M 349.289062 177.910156 C 347.523438 172.480469 342.832031 168.523438 337.179688 167.703125 L 267.273438 157.546875 L 236.007812 94.199219 C 233.480469 89.078125 228.265625 85.835938 222.558594 85.835938 C 216.847656 85.835938 211.632812 89.078125 209.105469 94.199219 L 177.84375 157.546875 L 107.933594 167.703125 C 102.285156 168.523438 97.589844 172.480469 95.828125 177.910156 C 94.0625 183.34375 95.535156 189.304688 99.621094 193.289062 L 150.207031 242.601562 L 138.265625 312.226562 C 137.300781 317.855469 139.613281 323.542969 144.234375 326.898438 C 148.851562 330.253906 154.976562 330.695312 160.03125 328.039062 L 222.558594 295.164062 L 285.085938 328.039062 C 287.28125 329.191406 289.675781 329.761719 292.066406 329.761719 C 292.085938 329.761719 292.105469 329.761719 292.125 329.761719 C 300.394531 329.742188 307.085938 323.035156 307.085938 314.761719 C 307.085938 313.613281 306.957031 312.488281 306.710938 311.410156 L 294.910156 242.601562 L 345.496094 193.289062 C 349.582031 189.304688 351.054688 183.34375 349.289062 177.910156 Z M 349.289062 177.910156 " style=" stroke:none;fill-rule:nonzero;fill:rgb(100%,81.960784%,16.862745%);fill-opacity:1;" />
<path d="M 349.289062 177.910156 C 347.523438 172.480469 342.832031 168.523438 337.179688 167.703125 L 267.273438 157.546875 L 236.007812 94.199219 C 233.480469 89.078125 228.265625 85.835938 222.558594 85.835938 L 222.558594 295.164062 L 285.085938 328.039062 C 287.28125 329.191406 289.675781 329.761719 292.066406 329.761719 C 292.085938 329.761719 292.105469 329.761719 292.125 329.761719 C 300.394531 329.742188 307.085938 323.035156 307.085938 314.761719 C 307.085938 313.613281 306.957031 312.488281 306.710938 311.410156 L 294.910156 242.601562 L 345.496094 193.289062 C 349.582031 189.304688 351.054688 183.34375 349.289062 177.910156 Z M 349.289062 177.910156 " style=" stroke:none;fill-rule:nonzero;fill:rgb(100%,55.686275%,11.372549%);fill-opacity:1;" />
</g>
</svg>